<?xml version="1.0" encoding="utf-8"?>
<!-- Generator: Adobe Illustrator 26.0.0, SVG Export Plug-In . SVG Version: 6.00 Build 0)  -->
<svg version="1.1" id="Capa_1" xmlns="http://www.w3.org/2000/svg" xmlns:xlink="http://www.w3.org/1999/xlink" x="0px" y="0px"
	 viewBox="0 0 640 1960.8" style="enable-background:new 0 0 640 1960.8;" xml:space="preserve">
<style type="text/css">
	.st0{fill:#FFFFFF;stroke:#565656;stroke-width:1.2965;stroke-linecap:round;stroke-linejoin:round;stroke-miterlimit:10;}
	.st1{fill:#565656;stroke:#565656;stroke-width:1.2965;stroke-linecap:round;stroke-linejoin:round;stroke-miterlimit:10;}
	.st2{fill:#FFFFFF;stroke:#FFFFFF;stroke-width:1.2965;stroke-linecap:round;stroke-linejoin:round;stroke-miterlimit:10;}
	.st3{fill:#FFFFFF;stroke:#FFFFFF;stroke-width:1.9744;stroke-linecap:round;stroke-linejoin:round;stroke-miterlimit:10;}
	.st4{fill:#FFFFFF;stroke:#565656;stroke-width:1.9744;stroke-linecap:round;stroke-linejoin:round;stroke-miterlimit:10;}
</style>
<g>
	<path class="st0" d="M490.4,586.3h0.2c0.2-0.1,0.3-0.1,0.4-0.1h0.4c0.1,0.2,0.1,0.4,0,0.5s-0.2,0.3-0.3,0.5
		c-0.1,0.1-0.1,0.2-0.1,0.3s-0.1,0.2-0.1,0.3c-0.2,0.2-0.1,0.4,0,0.6c0.1,0.1,0.2,0.2,0.2,0.3s0.1,0.2,0.2,0.3s0.1,0.2,0.1,0.2
		c0,0.1,0,0.2,0.1,0.2c0.1,0.1,0.1,0.2,0.1,0.4c0,0.1-0.1,0.2-0.2,0.3s-0.2,0.1-0.3,0c-0.2-0.1-0.4-0.1-0.6-0.1s-0.4-0.1-0.5-0.1
		c-0.1-0.1-0.3-0.1-0.6,0c-0.1,0-0.2,0.1-0.2,0.2c-0.1,0.2-0.2,0.3-0.3,0.5s-0.2,0.3-0.5,0.5c-0.1,0.1-0.1,0.1-0.2,0
		c0-0.1-0.1-0.1-0.2,0c0-0.1,0-0.1-0.1-0.2c-0.1,0-0.1-0.1,0-0.2c0,0,0.1-0.1,0-0.3v-0.9c0-0.3-0.1-0.4-0.3-0.5
		c-0.1,0-0.2-0.1-0.3-0.1c-0.1-0.1-0.2-0.1-0.3-0.1s-0.2-0.1-0.3-0.1s-0.2-0.1-0.3-0.2c-0.3-0.1-0.4-0.3-0.1-0.6c0,0,0.1,0,0.1-0.1
		c0.2-0.1,0.4-0.2,0.5-0.3c0.2-0.1,0.3-0.2,0.5-0.3s0.3-0.3,0.3-0.6v-0.4c0-0.1,0-0.3-0.1-0.4c0,0-0.1-0.1,0-0.2v-0.2
		c0-0.1,0.1-0.1,0.1-0.2c0,0,0-0.1,0.1-0.2c0.2-0.1,0.4-0.1,0.5,0s0.3,0.2,0.4,0.4c0.4,0.4,0.7,0.7,1.1,0.8h0.2 M117.4,532.3h0.2
		c0.2-0.1,0.3-0.1,0.4-0.1h0.4c0.1,0.2,0.1,0.4,0,0.5s-0.2,0.3-0.3,0.5c-0.1,0.1-0.1,0.2-0.1,0.3s-0.1,0.2-0.1,0.3
		c-0.2,0.2-0.1,0.4,0,0.6c0.1,0.1,0.2,0.2,0.2,0.3s0.1,0.2,0.2,0.3s0.1,0.2,0.1,0.2c0,0.1,0,0.2,0.1,0.2c0.1,0.1,0.1,0.2,0.1,0.4
		c0,0.1-0.1,0.2-0.2,0.3s-0.2,0.1-0.3,0c-0.2-0.1-0.4-0.1-0.6-0.1s-0.4-0.1-0.5-0.1c-0.1-0.1-0.3-0.1-0.6,0c-0.1,0-0.2,0.1-0.2,0.2
		c-0.1,0.2-0.2,0.3-0.3,0.5s-0.2,0.3-0.5,0.5c-0.1,0.1-0.1,0.1-0.2,0c0-0.1-0.1-0.1-0.2,0c0-0.1,0-0.1-0.1-0.2c-0.1,0-0.1-0.1,0-0.2
		c0,0,0.1-0.1,0-0.3v-0.9c0-0.3-0.1-0.4-0.3-0.5c-0.1,0-0.2-0.1-0.3-0.1c-0.1-0.1-0.2-0.1-0.3-0.1s-0.2-0.1-0.3-0.1
		s-0.2-0.1-0.3-0.2c-0.3-0.1-0.4-0.3-0.1-0.6c0,0,0.1,0,0.1-0.1c0.2-0.1,0.4-0.2,0.5-0.3c0.2-0.1,0.3-0.2,0.5-0.3s0.3-0.3,0.3-0.6
		v-0.4c0-0.1,0-0.3-0.1-0.4c0,0-0.1-0.1,0-0.2v-0.2c0-0.1,0.1-0.1,0.1-0.2c0,0,0-0.1,0.1-0.2c0.2-0.1,0.4-0.1,0.5,0s0.3,0.2,0.4,0.4
		c0.4,0.4,0.7,0.7,1.1,0.8h0.2 M253.4,242.3h0.2c0.2-0.1,0.3-0.1,0.4-0.1h0.4c0.1,0.2,0.1,0.4,0,0.5s-0.2,0.3-0.3,0.5
		c-0.1,0.1-0.1,0.2-0.1,0.3s-0.1,0.2-0.1,0.3c-0.2,0.2-0.1,0.4,0,0.6c0.1,0.1,0.2,0.2,0.2,0.3s0.1,0.2,0.2,0.3s0.1,0.2,0.1,0.2
		c0,0.1,0,0.2,0.1,0.2c0.1,0.1,0.1,0.2,0.1,0.4c0,0.1-0.1,0.2-0.2,0.3c-0.1,0.1-0.2,0.1-0.3,0c-0.2-0.1-0.4-0.1-0.6-0.1
		s-0.4-0.1-0.5-0.1c-0.1-0.1-0.3-0.1-0.6,0c-0.1,0-0.2,0.1-0.2,0.2c-0.1,0.2-0.2,0.3-0.3,0.5s-0.2,0.3-0.5,0.5
		c-0.1,0.1-0.1,0.1-0.2,0c0-0.1-0.1-0.1-0.2,0c0-0.1,0-0.1-0.1-0.2c-0.1,0-0.1-0.1,0-0.2c0,0,0.1-0.1,0-0.3v-0.9
		c0-0.3-0.1-0.4-0.3-0.5c-0.1,0-0.2-0.1-0.3-0.1c-0.1-0.1-0.2-0.1-0.3-0.1s-0.2-0.1-0.3-0.1s-0.2-0.1-0.3-0.2
		c-0.3-0.1-0.4-0.3-0.1-0.6c0,0,0.1,0,0.1-0.1c0.2-0.1,0.4-0.2,0.5-0.3c0.2-0.1,0.3-0.2,0.5-0.3s0.3-0.3,0.3-0.6v-0.4
		c0-0.1,0-0.3-0.1-0.4c0,0-0.1-0.1,0-0.2v-0.2c0-0.1,0.1-0.1,0.1-0.2c0,0,0-0.1,0.1-0.2c0.2-0.1,0.4-0.1,0.5,0s0.3,0.2,0.4,0.4
		c0.4,0.4,0.7,0.7,1.1,0.8h0.2 M528.4,117.3h0.2c0.2-0.1,0.3-0.1,0.4-0.1h0.4c0.1,0.2,0.1,0.4,0,0.5s-0.2,0.3-0.3,0.5
		c-0.1,0.1-0.1,0.2-0.1,0.3s-0.1,0.2-0.1,0.3c-0.2,0.2-0.1,0.4,0,0.6c0.1,0.1,0.2,0.2,0.2,0.3s0.1,0.2,0.2,0.3s0.1,0.2,0.1,0.2
		c0,0.1,0,0.2,0.1,0.2c0.1,0.1,0.1,0.2,0.1,0.4c0,0.1-0.1,0.2-0.2,0.3c-0.1,0.1-0.2,0.1-0.3,0c-0.2-0.1-0.4-0.1-0.6-0.1
		s-0.4-0.1-0.5-0.1c-0.1-0.1-0.3-0.1-0.6,0c-0.1,0-0.2,0.1-0.2,0.2c-0.1,0.2-0.2,0.3-0.3,0.5s-0.2,0.3-0.5,0.5
		c-0.1,0.1-0.1,0.1-0.2,0c0-0.1-0.1-0.1-0.2,0c0-0.1,0-0.1-0.1-0.2c-0.1,0-0.1-0.1,0-0.2c0,0,0.1-0.1,0-0.3v-0.9
		c0-0.3-0.1-0.4-0.3-0.5c-0.1,0-0.2-0.1-0.3-0.1c-0.1-0.1-0.2-0.1-0.3-0.1s-0.2-0.1-0.3-0.1s-0.2-0.1-0.3-0.2
		c-0.3-0.1-0.4-0.3-0.1-0.6c0,0,0.1,0,0.1-0.1c0.2-0.1,0.4-0.2,0.5-0.3c0.2-0.1,0.3-0.2,0.5-0.3c0.2-0.1,0.3-0.3,0.3-0.6v-0.4
		c0-0.1,0-0.3-0.1-0.4c0,0-0.1-0.1,0-0.2v-0.2c0-0.1,0.1-0.1,0.1-0.2c0,0,0-0.1,0.1-0.2c0.2-0.1,0.4-0.1,0.5,0s0.3,0.2,0.4,0.4
		c0.4,0.4,0.7,0.7,1.1,0.8h0.2 M479.4,134.3h0.2c0.2-0.1,0.3-0.1,0.4-0.1h0.4c0.1,0.2,0.1,0.4,0,0.5s-0.2,0.3-0.3,0.5
		c-0.1,0.1-0.1,0.2-0.1,0.3s-0.1,0.2-0.1,0.3c-0.2,0.2-0.1,0.4,0,0.6c0.1,0.1,0.2,0.2,0.2,0.3s0.1,0.2,0.2,0.3s0.1,0.2,0.1,0.2
		c0,0.1,0,0.2,0.1,0.2c0.1,0.1,0.1,0.2,0.1,0.4c0,0.1-0.1,0.2-0.2,0.3s-0.2,0.1-0.3,0c-0.2-0.1-0.4-0.1-0.6-0.1s-0.4-0.1-0.5-0.1
		c-0.1-0.1-0.3-0.1-0.6,0c-0.1,0-0.2,0.1-0.2,0.2c-0.1,0.2-0.2,0.3-0.3,0.5s-0.2,0.3-0.5,0.5c-0.1,0.1-0.1,0.1-0.2,0
		c0-0.1-0.1-0.1-0.2,0c0-0.1,0-0.1-0.1-0.2c-0.1,0-0.1-0.1,0-0.2c0,0,0.1-0.1,0-0.3v-0.9c0-0.3-0.1-0.4-0.3-0.5
		c-0.1,0-0.2-0.1-0.3-0.1c-0.1-0.1-0.2-0.1-0.3-0.1s-0.2-0.1-0.3-0.1s-0.2-0.1-0.3-0.2c-0.3-0.1-0.4-0.3-0.1-0.6c0,0,0.1,0,0.1-0.1
		c0.2-0.1,0.4-0.2,0.5-0.3c0.2-0.1,0.3-0.2,0.5-0.3s0.3-0.3,0.3-0.6v-0.4c0-0.1,0-0.3-0.1-0.4c0,0-0.1-0.1,0-0.2v-0.2
		c0-0.1,0.1-0.1,0.1-0.2c0,0,0-0.1,0.1-0.2c0.2-0.1,0.4-0.1,0.5,0s0.3,0.2,0.4,0.4c0.4,0.4,0.7,0.7,1.1,0.8h0.2"/>
	<path class="st1" d="M397.4,106.3h0.2c0.2-0.1,0.3-0.1,0.4-0.1h0.4c0.1,0.2,0.1,0.4,0,0.5s-0.2,0.3-0.3,0.5
		c-0.1,0.1-0.1,0.2-0.1,0.3s-0.1,0.2-0.1,0.3c-0.2,0.2-0.1,0.4,0,0.6c0.1,0.1,0.2,0.2,0.2,0.3s0.1,0.2,0.2,0.3s0.1,0.2,0.1,0.2
		c0,0.1,0,0.2,0.1,0.2c0.1,0.1,0.1,0.2,0.1,0.4c0,0.1-0.1,0.2-0.2,0.3c-0.1,0.1-0.2,0.1-0.3,0c-0.2-0.1-0.4-0.1-0.6-0.1
		s-0.4-0.1-0.5-0.1c-0.1-0.1-0.3-0.1-0.6,0c-0.1,0-0.2,0.1-0.2,0.2c-0.1,0.2-0.2,0.3-0.3,0.5s-0.2,0.3-0.5,0.5
		c-0.1,0.1-0.1,0.1-0.2,0c0-0.1-0.1-0.1-0.2,0c0-0.1,0-0.1-0.1-0.2c-0.1,0-0.1-0.1,0-0.2c0,0,0.1-0.1,0-0.3v-0.9
		c0-0.3-0.1-0.4-0.3-0.5c-0.1,0-0.2-0.1-0.3-0.1c-0.1-0.1-0.2-0.1-0.3-0.1s-0.2-0.1-0.3-0.1s-0.2-0.1-0.3-0.2
		c-0.3-0.1-0.4-0.3-0.1-0.6c0,0,0.1,0,0.1-0.1c0.2-0.1,0.4-0.2,0.5-0.3c0.2-0.1,0.3-0.2,0.5-0.3s0.3-0.3,0.3-0.6v-0.4
		c0-0.1,0-0.3-0.1-0.4c0,0-0.1-0.1,0-0.2v-0.2c0-0.1,0.1-0.1,0.1-0.2c0,0,0-0.1,0.1-0.2c0.2-0.1,0.4-0.1,0.5,0s0.3,0.2,0.4,0.4
		c0.4,0.4,0.7,0.7,1.1,0.8h0.2"/>
	<path class="st0" d="M187.8,27.2h0.2c0.2-0.1,0.3-0.1,0.4-0.1h0.4c0.1,0.2,0.1,0.4,0,0.5s-0.2,0.3-0.3,0.5
		c-0.1,0.1-0.1,0.2-0.1,0.3s-0.1,0.2-0.1,0.3c-0.2,0.2-0.1,0.4,0,0.6c0.1,0.1,0.2,0.2,0.2,0.3s0.1,0.2,0.2,0.3s0.1,0.2,0.1,0.2
		c0,0.1,0,0.2,0.1,0.2c0.1,0.1,0.1,0.2,0.1,0.4c0,0.1-0.1,0.2-0.2,0.3c-0.1,0.1-0.2,0.1-0.3,0c-0.2-0.1-0.4-0.1-0.6-0.1
		s-0.4-0.1-0.5-0.1c-0.1-0.1-0.3-0.1-0.6,0c-0.1,0-0.2,0.1-0.2,0.2c-0.1,0.2-0.2,0.3-0.3,0.5s-0.2,0.3-0.5,0.5
		c-0.1,0.1-0.1,0.1-0.2,0c0-0.1-0.1-0.1-0.2,0c0-0.1,0-0.1-0.1-0.2c-0.1,0-0.1-0.1,0-0.2c0,0,0.1-0.1,0-0.3v-0.9
		c0-0.3-0.1-0.4-0.3-0.5c-0.1,0-0.2-0.1-0.3-0.1c-0.1-0.1-0.2-0.1-0.3-0.1s-0.2-0.1-0.3-0.1s-0.2-0.1-0.3-0.2
		c-0.3-0.1-0.4-0.3-0.1-0.6c0,0,0.1,0,0.1-0.1c0.2-0.1,0.4-0.2,0.5-0.3c0.2-0.1,0.3-0.2,0.5-0.3c0.2-0.1,0.3-0.3,0.3-0.6v-0.4
		c0-0.1,0-0.3-0.1-0.4c0,0-0.1-0.1,0-0.2v-0.2c0-0.1,0.1-0.1,0.1-0.2c0,0,0-0.1,0.1-0.2c0.2-0.1,0.4-0.1,0.5,0s0.3,0.2,0.4,0.4
		c0.4,0.4,0.7,0.7,1.1,0.8h0.2"/>
	<path class="st1" d="M56.8,16.2H57c0.2-0.1,0.3-0.1,0.4-0.1h0.4c0.1,0.2,0.1,0.4,0,0.5s-0.2,0.3-0.3,0.5c-0.1,0.1-0.1,0.2-0.1,0.3
		s-0.1,0.2-0.1,0.3c-0.2,0.2-0.1,0.4,0,0.6c0.1,0.1,0.2,0.2,0.2,0.3s0.1,0.2,0.2,0.3s0.1,0.2,0.1,0.2c0,0.1,0,0.2,0.1,0.2
		c0.1,0.1,0.1,0.2,0.1,0.4c0,0.1-0.1,0.2-0.2,0.3c-0.1,0.1-0.2,0.1-0.3,0c-0.2-0.1-0.4-0.1-0.6-0.1s-0.4-0.1-0.5-0.1
		c-0.1-0.1-0.3-0.1-0.6,0c-0.1,0-0.2,0.1-0.2,0.2c-0.1,0.2-0.2,0.3-0.3,0.5s-0.2,0.3-0.5,0.5c-0.1,0.1-0.1,0.1-0.2,0
		c0-0.1-0.1-0.1-0.2,0c0-0.1,0-0.1-0.1-0.2c-0.1,0-0.1-0.1,0-0.2c0,0,0.1-0.1,0-0.3v-0.9c0-0.3-0.1-0.4-0.3-0.5
		c-0.1,0-0.2-0.1-0.3-0.1c-0.1-0.1-0.2-0.1-0.3-0.1s-0.2-0.1-0.3-0.1s-0.2-0.1-0.3-0.2c-0.3-0.1-0.4-0.3-0.1-0.6c0,0,0.1,0,0.1-0.1
		c0.2-0.1,0.4-0.2,0.5-0.3c0.2-0.1,0.3-0.2,0.5-0.3s0.3-0.3,0.3-0.6v-0.4c0-0.1,0-0.3-0.1-0.4c0,0-0.1-0.1,0-0.2v-0.2
		c0-0.1,0.1-0.1,0.1-0.2c0,0,0-0.1,0.1-0.2c0.2-0.1,0.4-0.1,0.5,0s0.3,0.2,0.4,0.4c0.4,0.4,0.7,0.7,1.1,0.8h0.2"/>
	<path class="st0" d="M558.4,18.6h0.2c0.2-0.1,0.3-0.1,0.4-0.1h0.4c0.1,0.2,0.1,0.4,0,0.5s-0.2,0.3-0.3,0.5
		c-0.1,0.1-0.1,0.2-0.1,0.3s-0.1,0.2-0.1,0.3c-0.2,0.2-0.1,0.4,0,0.6c0.1,0.1,0.2,0.2,0.2,0.3s0.1,0.2,0.2,0.3
		c0.1,0.1,0.1,0.2,0.1,0.2c0,0.1,0,0.2,0.1,0.2c0.1,0.1,0.1,0.2,0.1,0.4c0,0.1-0.1,0.2-0.2,0.3c-0.1,0.1-0.2,0.1-0.3,0
		c-0.2-0.1-0.4-0.1-0.6-0.1s-0.4-0.1-0.5-0.1c-0.1-0.1-0.3-0.1-0.6,0c-0.1,0-0.2,0.1-0.2,0.2c-0.1,0.2-0.2,0.3-0.3,0.5
		s-0.2,0.3-0.5,0.5c-0.1,0.1-0.1,0.1-0.2,0c0-0.1-0.1-0.1-0.2,0c0-0.1,0-0.1-0.1-0.2c-0.1,0-0.1-0.1,0-0.2c0,0,0.1-0.1,0-0.3v-0.9
		c0-0.3-0.1-0.4-0.3-0.5c-0.1,0-0.2-0.1-0.3-0.1c-0.1-0.1-0.2-0.1-0.3-0.1s-0.2-0.1-0.3-0.1s-0.2-0.1-0.3-0.2
		c-0.3-0.1-0.4-0.3-0.1-0.6c0,0,0.1,0,0.1-0.1c0.2-0.1,0.4-0.2,0.5-0.3c0.2-0.1,0.3-0.2,0.5-0.3s0.3-0.3,0.3-0.6v-0.4
		c0-0.1,0-0.3-0.1-0.4c0,0-0.1-0.1,0-0.2v-0.2c0-0.1,0.1-0.1,0.1-0.2c0,0,0-0.1,0.1-0.2c0.2-0.1,0.4-0.1,0.5,0s0.3,0.2,0.4,0.4
		c0.4,0.4,0.7,0.7,1.1,0.8h0.2 M495.4,488.3h0.2c0.2-0.1,0.3-0.1,0.4-0.1h0.4c0.1,0.2,0.1,0.4,0,0.5s-0.2,0.3-0.3,0.5
		c-0.1,0.1-0.1,0.2-0.1,0.3s-0.1,0.2-0.1,0.3c-0.2,0.2-0.1,0.4,0,0.6c0.1,0.1,0.2,0.2,0.2,0.3s0.1,0.2,0.2,0.3s0.1,0.2,0.1,0.2
		c0,0.1,0,0.2,0.1,0.2c0.1,0.1,0.1,0.2,0.1,0.4c0,0.1-0.1,0.2-0.2,0.3c-0.1,0.1-0.2,0.1-0.3,0c-0.2-0.1-0.4-0.1-0.6-0.1
		s-0.4-0.1-0.5-0.1c-0.1-0.1-0.3-0.1-0.6,0c-0.1,0-0.2,0.1-0.2,0.2c-0.1,0.2-0.2,0.3-0.3,0.5s-0.2,0.3-0.5,0.5
		c-0.1,0.1-0.1,0.1-0.2,0c0-0.1-0.1-0.1-0.2,0c0-0.1,0-0.1-0.1-0.2c-0.1,0-0.1-0.1,0-0.2c0,0,0.1-0.1,0-0.3v-0.9
		c0-0.3-0.1-0.4-0.3-0.5c-0.1,0-0.2-0.1-0.3-0.1c-0.1-0.1-0.2-0.1-0.3-0.1s-0.2-0.1-0.3-0.1s-0.2-0.1-0.3-0.2
		c-0.3-0.1-0.4-0.3-0.1-0.6c0,0,0.1,0,0.1-0.1c0.2-0.1,0.4-0.2,0.5-0.3c0.2-0.1,0.3-0.2,0.5-0.3s0.3-0.3,0.3-0.6v-0.4
		c0-0.1,0-0.3-0.1-0.4c0,0-0.1-0.1,0-0.2v-0.2c0-0.1,0.1-0.1,0.1-0.2c0,0,0-0.1,0.1-0.2c0.2-0.1,0.4-0.1,0.5,0s0.3,0.2,0.4,0.4
		c0.4,0.4,0.7,0.7,1.1,0.8h0.2 M237.4,653.3h0.2c0.2-0.1,0.3-0.1,0.4-0.1h0.4c0.1,0.2,0.1,0.4,0,0.5s-0.2,0.3-0.3,0.5
		c-0.1,0.1-0.1,0.2-0.1,0.3s-0.1,0.2-0.1,0.3c-0.2,0.2-0.1,0.4,0,0.6c0.1,0.1,0.2,0.2,0.2,0.3s0.1,0.2,0.2,0.3s0.1,0.2,0.1,0.2
		c0,0.1,0,0.2,0.1,0.2c0.1,0.1,0.1,0.2,0.1,0.4c0,0.1-0.1,0.2-0.2,0.3c-0.1,0.1-0.2,0.1-0.3,0c-0.2-0.1-0.4-0.1-0.6-0.1
		s-0.4-0.1-0.5-0.1c-0.1-0.1-0.3-0.1-0.6,0c-0.1,0-0.2,0.1-0.2,0.2c-0.1,0.2-0.2,0.3-0.3,0.5s-0.2,0.3-0.5,0.5
		c-0.1,0.1-0.1,0.1-0.2,0c0-0.1-0.1-0.1-0.2,0c0-0.1,0-0.1-0.1-0.2c-0.1,0-0.1-0.1,0-0.2c0,0,0.1-0.1,0-0.3v-0.9
		c0-0.3-0.1-0.4-0.3-0.5c-0.1,0-0.2-0.1-0.3-0.1c-0.1-0.1-0.2-0.1-0.3-0.1s-0.2-0.1-0.3-0.1s-0.2-0.1-0.3-0.2
		c-0.3-0.1-0.4-0.3-0.1-0.6c0,0,0.1,0,0.1-0.1c0.2-0.1,0.4-0.2,0.5-0.3c0.2-0.1,0.3-0.2,0.5-0.3s0.3-0.3,0.3-0.6v-0.4
		c0-0.1,0-0.3-0.1-0.4c0,0-0.1-0.1,0-0.2v-0.2c0-0.1,0.1-0.1,0.1-0.2c0,0,0-0.1,0.1-0.2c0.2-0.1,0.4-0.1,0.5,0s0.3,0.2,0.4,0.4
		c0.4,0.4,0.7,0.7,1.1,0.8h0.2 M118.4,949.3h0.2c0.2-0.1,0.3-0.1,0.4-0.1h0.4c0.1,0.2,0.1,0.4,0,0.5s-0.2,0.3-0.3,0.5
		c-0.1,0.1-0.1,0.2-0.1,0.3s-0.1,0.2-0.1,0.3c-0.2,0.2-0.1,0.4,0,0.6c0.1,0.1,0.2,0.2,0.2,0.3s0.1,0.2,0.2,0.3s0.1,0.2,0.1,0.2
		c0,0.1,0,0.2,0.1,0.2c0.1,0.1,0.1,0.2,0.1,0.4c0,0.1-0.1,0.2-0.2,0.3s-0.2,0.1-0.3,0c-0.2-0.1-0.4-0.1-0.6-0.1s-0.4-0.1-0.5-0.1
		c-0.1-0.1-0.3-0.1-0.6,0c-0.1,0-0.2,0.1-0.2,0.2c-0.1,0.2-0.2,0.3-0.3,0.5s-0.2,0.3-0.5,0.5c-0.1,0.1-0.1,0.1-0.2,0
		c0-0.1-0.1-0.1-0.2,0c0-0.1,0-0.1-0.1-0.2c-0.1,0-0.1-0.1,0-0.2c0,0,0.1-0.1,0-0.3v-0.9c0-0.3-0.1-0.4-0.3-0.5
		c-0.1,0-0.2-0.1-0.3-0.1c-0.1-0.1-0.2-0.1-0.3-0.1s-0.2-0.1-0.3-0.1s-0.2-0.1-0.3-0.2c-0.3-0.1-0.4-0.3-0.1-0.6c0,0,0.1,0,0.1-0.1
		c0.2-0.1,0.4-0.2,0.5-0.3c0.2-0.1,0.3-0.2,0.5-0.3s0.3-0.3,0.3-0.6v-0.4c0-0.1,0-0.3-0.1-0.4c0,0-0.1-0.1,0-0.2v-0.2
		c0-0.1,0.1-0.1,0.1-0.2c0,0,0-0.1,0.1-0.2c0.2-0.1,0.4-0.1,0.5,0s0.3,0.2,0.4,0.4c0.4,0.4,0.7,0.7,1.1,0.8h0.2 M78.4,976.3h0.2
		c0.2-0.1,0.3-0.1,0.4-0.1h0.4c0.1,0.2,0.1,0.4,0,0.5s-0.2,0.3-0.3,0.5c-0.1,0.1-0.1,0.2-0.1,0.3s-0.1,0.2-0.1,0.3
		c-0.2,0.2-0.1,0.4,0,0.6c0.1,0.1,0.2,0.2,0.2,0.3s0.1,0.2,0.2,0.3s0.1,0.2,0.1,0.2c0,0.1,0,0.2,0.1,0.2c0.1,0.1,0.1,0.2,0.1,0.4
		c0,0.1-0.1,0.2-0.2,0.3s-0.2,0.1-0.3,0c-0.2-0.1-0.4-0.1-0.6-0.1s-0.4-0.1-0.5-0.1c-0.1-0.1-0.3-0.1-0.6,0c-0.1,0-0.2,0.1-0.2,0.2
		c-0.1,0.2-0.2,0.3-0.3,0.5s-0.2,0.3-0.5,0.5c-0.1,0.1-0.1,0.1-0.2,0c0-0.1-0.1-0.1-0.2,0c0-0.1,0-0.1-0.1-0.2c-0.1,0-0.1-0.1,0-0.2
		c0,0,0.1-0.1,0-0.3v-0.9c0-0.3-0.1-0.4-0.3-0.5c-0.1,0-0.2-0.1-0.3-0.1c-0.1-0.1-0.2-0.1-0.3-0.1s-0.2-0.1-0.3-0.1
		s-0.2-0.1-0.3-0.2c-0.3-0.1-0.4-0.3-0.1-0.6c0,0,0.1,0,0.1-0.1c0.2-0.1,0.4-0.2,0.5-0.3c0.2-0.1,0.3-0.2,0.5-0.3s0.3-0.3,0.3-0.6
		v-0.4c0-0.1,0-0.3-0.1-0.4c0,0-0.1-0.1,0-0.2v-0.2c0-0.1,0.1-0.1,0.1-0.2c0,0,0-0.1,0.1-0.2c0.2-0.1,0.4-0.1,0.5,0s0.3,0.2,0.4,0.4
		c0.4,0.4,0.7,0.7,1.1,0.8H78 M85.4,1038.3h0.2c0.2-0.1,0.3-0.1,0.4-0.1h0.4c0.1,0.2,0.1,0.4,0,0.5s-0.2,0.3-0.3,0.5
		c-0.1,0.1-0.1,0.2-0.1,0.3s-0.1,0.2-0.1,0.3c-0.2,0.2-0.1,0.4,0,0.6c0.1,0.1,0.2,0.2,0.2,0.3s0.1,0.2,0.2,0.3s0.1,0.2,0.1,0.2
		c0,0.1,0,0.2,0.1,0.2c0.1,0.1,0.1,0.2,0.1,0.4c0,0.1-0.1,0.2-0.2,0.3c-0.1,0.1-0.2,0.1-0.3,0c-0.2-0.1-0.4-0.1-0.6-0.1
		s-0.4-0.1-0.5-0.1c-0.1-0.1-0.3-0.1-0.6,0c-0.1,0-0.2,0.1-0.2,0.2c-0.1,0.2-0.2,0.3-0.3,0.5s-0.2,0.3-0.5,0.5
		c-0.1,0.1-0.1,0.1-0.2,0c0-0.1-0.1-0.1-0.2,0c0-0.1,0-0.1-0.1-0.2c-0.1,0-0.1-0.1,0-0.2c0,0,0.1-0.1,0-0.3v-0.9
		c0-0.3-0.1-0.4-0.3-0.5c-0.1,0-0.2-0.1-0.3-0.1c-0.1-0.1-0.2-0.1-0.3-0.1s-0.2-0.1-0.3-0.1s-0.2-0.1-0.3-0.2
		c-0.3-0.1-0.4-0.3-0.1-0.6c0,0,0.1,0,0.1-0.1c0.2-0.1,0.4-0.2,0.5-0.3c0.2-0.1,0.3-0.2,0.5-0.3s0.3-0.3,0.3-0.6v-0.4
		c0-0.1,0-0.3-0.1-0.4c0,0-0.1-0.1,0-0.2v-0.2c0-0.1,0.1-0.1,0.1-0.2c0,0,0-0.1,0.1-0.2c0.2-0.1,0.4-0.1,0.5,0s0.3,0.2,0.4,0.4
		c0.4,0.4,0.7,0.7,1.1,0.8H85 M418.4,995.3h0.2c0.2-0.1,0.3-0.1,0.4-0.1h0.4c0.1,0.2,0.1,0.4,0,0.5s-0.2,0.3-0.3,0.5
		c-0.1,0.1-0.1,0.2-0.1,0.3s-0.1,0.2-0.1,0.3c-0.2,0.2-0.1,0.4,0,0.6c0.1,0.1,0.2,0.2,0.2,0.3s0.1,0.2,0.2,0.3s0.1,0.2,0.1,0.2
		c0,0.1,0,0.2,0.1,0.2c0.1,0.1,0.1,0.2,0.1,0.4c0,0.1-0.1,0.2-0.2,0.3s-0.2,0.1-0.3,0c-0.2-0.1-0.4-0.1-0.6-0.1s-0.4-0.1-0.5-0.1
		c-0.1-0.1-0.3-0.1-0.6,0c-0.1,0-0.2,0.1-0.2,0.2c-0.1,0.2-0.2,0.3-0.3,0.5s-0.2,0.3-0.5,0.5c-0.1,0.1-0.1,0.1-0.2,0
		c0-0.1-0.1-0.1-0.2,0c0-0.1,0-0.1-0.1-0.2c-0.1,0-0.1-0.1,0-0.2c0,0,0.1-0.1,0-0.3v-0.9c0-0.3-0.1-0.4-0.3-0.5
		c-0.1,0-0.2-0.1-0.3-0.1c-0.1-0.1-0.2-0.1-0.3-0.1s-0.2-0.1-0.3-0.1s-0.2-0.1-0.3-0.2c-0.3-0.1-0.4-0.3-0.1-0.6c0,0,0.1,0,0.1-0.1
		c0.2-0.1,0.4-0.2,0.5-0.3c0.2-0.1,0.3-0.2,0.5-0.3s0.3-0.3,0.3-0.6v-0.4c0-0.1,0-0.3-0.1-0.4c0,0-0.1-0.1,0-0.2v-0.2
		c0-0.1,0.1-0.1,0.1-0.2c0,0,0-0.1,0.1-0.2c0.2-0.1,0.4-0.1,0.5,0s0.3,0.2,0.4,0.4c0.4,0.4,0.7,0.7,1.1,0.8h0.2 M466.4,957.3h0.2
		c0.2-0.1,0.3-0.1,0.4-0.1h0.4c0.1,0.2,0.1,0.4,0,0.5s-0.2,0.3-0.3,0.5c-0.1,0.1-0.1,0.2-0.1,0.3s-0.1,0.2-0.1,0.3
		c-0.2,0.2-0.1,0.4,0,0.6c0.1,0.1,0.2,0.2,0.2,0.3s0.1,0.2,0.2,0.3s0.1,0.2,0.1,0.2c0,0.1,0,0.2,0.1,0.2c0.1,0.1,0.1,0.2,0.1,0.4
		c0,0.1-0.1,0.2-0.2,0.3s-0.2,0.1-0.3,0c-0.2-0.1-0.4-0.1-0.6-0.1s-0.4-0.1-0.5-0.1c-0.1-0.1-0.3-0.1-0.6,0c-0.1,0-0.2,0.1-0.2,0.2
		c-0.1,0.2-0.2,0.3-0.3,0.5s-0.2,0.3-0.5,0.5c-0.1,0.1-0.1,0.1-0.2,0c0-0.1-0.1-0.1-0.2,0c0-0.1,0-0.1-0.1-0.2c-0.1,0-0.1-0.1,0-0.2
		c0,0,0.1-0.1,0-0.3v-0.9c0-0.3-0.1-0.4-0.3-0.5c-0.1,0-0.2-0.1-0.3-0.1c-0.1-0.1-0.2-0.1-0.3-0.1s-0.2-0.1-0.3-0.1
		s-0.2-0.1-0.3-0.2c-0.3-0.1-0.4-0.3-0.1-0.6c0,0,0.1,0,0.1-0.1c0.2-0.1,0.4-0.2,0.5-0.3c0.2-0.1,0.3-0.2,0.5-0.3s0.3-0.3,0.3-0.6
		v-0.4c0-0.1,0-0.3-0.1-0.4c0,0-0.1-0.1,0-0.2v-0.2c0-0.1,0.1-0.1,0.1-0.2c0,0,0-0.1,0.1-0.2c0.2-0.1,0.4-0.1,0.5,0s0.3,0.2,0.4,0.4
		c0.4,0.4,0.7,0.7,1.1,0.8h0.2 M130.4,445.3h0.2c0.2-0.1,0.3-0.1,0.4-0.1h0.4c0.1,0.2,0.1,0.4,0,0.5s-0.2,0.3-0.3,0.5
		c-0.1,0.1-0.1,0.2-0.1,0.3s-0.1,0.2-0.1,0.3c-0.2,0.2-0.1,0.4,0,0.6c0.1,0.1,0.2,0.2,0.2,0.3s0.1,0.2,0.2,0.3s0.1,0.2,0.1,0.2
		c0,0.1,0,0.2,0.1,0.2c0.1,0.1,0.1,0.2,0.1,0.4c0,0.1-0.1,0.2-0.2,0.3c-0.1,0.1-0.2,0.1-0.3,0c-0.2-0.1-0.4-0.1-0.6-0.1
		s-0.4-0.1-0.5-0.1c-0.1-0.1-0.3-0.1-0.6,0c-0.1,0-0.2,0.1-0.2,0.2c-0.1,0.2-0.2,0.3-0.3,0.5s-0.2,0.3-0.5,0.5
		c-0.1,0.1-0.1,0.1-0.2,0c0-0.1-0.1-0.1-0.2,0c0-0.1,0-0.1-0.1-0.2c-0.1,0-0.1-0.1,0-0.2c0,0,0.1-0.1,0-0.3v-0.9
		c0-0.3-0.1-0.4-0.3-0.5c-0.1,0-0.2-0.1-0.3-0.1c-0.1-0.1-0.2-0.1-0.3-0.1s-0.2-0.1-0.3-0.1s-0.2-0.1-0.3-0.2
		c-0.3-0.1-0.4-0.3-0.1-0.6c0,0,0.1,0,0.1-0.1c0.2-0.1,0.4-0.2,0.5-0.3c0.2-0.1,0.3-0.2,0.5-0.3s0.3-0.3,0.3-0.6v-0.4
		c0-0.1,0-0.3-0.1-0.4c0,0-0.1-0.1,0-0.2v-0.2c0-0.1,0.1-0.1,0.1-0.2c0,0,0-0.1,0.1-0.2c0.2-0.1,0.4-0.1,0.5,0s0.3,0.2,0.4,0.4
		c0.4,0.4,0.7,0.7,1.1,0.8h0.2 M95.4,428.3h0.2c0.2-0.1,0.3-0.1,0.4-0.1h0.4c0.1,0.2,0.1,0.4,0,0.5s-0.2,0.3-0.3,0.5
		c-0.1,0.1-0.1,0.2-0.1,0.3s-0.1,0.2-0.1,0.3c-0.2,0.2-0.1,0.4,0,0.6c0.1,0.1,0.2,0.2,0.2,0.3s0.1,0.2,0.2,0.3s0.1,0.2,0.1,0.2
		c0,0.1,0,0.2,0.1,0.2c0.1,0.1,0.1,0.2,0.1,0.4c0,0.1-0.1,0.2-0.2,0.3c-0.1,0.1-0.2,0.1-0.3,0c-0.2-0.1-0.4-0.1-0.6-0.1
		s-0.4-0.1-0.5-0.1c-0.1-0.1-0.3-0.1-0.6,0c-0.1,0-0.2,0.1-0.2,0.2c-0.1,0.2-0.2,0.3-0.3,0.5s-0.2,0.3-0.5,0.5
		c-0.1,0.1-0.1,0.1-0.2,0c0-0.1-0.1-0.1-0.2,0c0-0.1,0-0.1-0.1-0.2c-0.1,0-0.1-0.1,0-0.2c0,0,0.1-0.1,0-0.3v-0.9
		c0-0.3-0.1-0.4-0.3-0.5c-0.1,0-0.2-0.1-0.3-0.1c-0.1-0.1-0.2-0.1-0.3-0.1s-0.2-0.1-0.3-0.1s-0.2-0.1-0.3-0.2
		c-0.3-0.1-0.4-0.3-0.1-0.6c0,0,0.1,0,0.1-0.1c0.2-0.1,0.4-0.2,0.5-0.3c0.2-0.1,0.3-0.2,0.5-0.3s0.3-0.3,0.3-0.6v-0.4
		c0-0.1,0-0.3-0.1-0.4c0,0-0.1-0.1,0-0.2v-0.2c0-0.1,0.1-0.1,0.1-0.2c0,0,0-0.1,0.1-0.2c0.2-0.1,0.4-0.1,0.5,0s0.3,0.2,0.4,0.4
		c0.4,0.4,0.7,0.7,1.1,0.8H95 M137.4,382.3h0.2c0.2-0.1,0.3-0.1,0.4-0.1h0.4c0.1,0.2,0.1,0.4,0,0.5s-0.2,0.3-0.3,0.5
		c-0.1,0.1-0.1,0.2-0.1,0.3s-0.1,0.2-0.1,0.3c-0.2,0.2-0.1,0.4,0,0.6c0.1,0.1,0.2,0.2,0.2,0.3s0.1,0.2,0.2,0.3s0.1,0.2,0.1,0.2
		c0,0.1,0,0.2,0.1,0.2c0.1,0.1,0.1,0.2,0.1,0.4c0,0.1-0.1,0.2-0.2,0.3c-0.1,0.1-0.2,0.1-0.3,0c-0.2-0.1-0.4-0.1-0.6-0.1
		s-0.4-0.1-0.5-0.1c-0.1-0.1-0.3-0.1-0.6,0c-0.1,0-0.2,0.1-0.2,0.2c-0.1,0.2-0.2,0.3-0.3,0.5s-0.2,0.3-0.5,0.5
		c-0.1,0.1-0.1,0.1-0.2,0c0-0.1-0.1-0.1-0.2,0c0-0.1,0-0.1-0.1-0.2c-0.1,0-0.1-0.1,0-0.2c0,0,0.1-0.1,0-0.3v-0.9
		c0-0.3-0.1-0.4-0.3-0.5c-0.1,0-0.2-0.1-0.3-0.1c-0.1-0.1-0.2-0.1-0.3-0.1s-0.2-0.1-0.3-0.1s-0.2-0.1-0.3-0.2
		c-0.3-0.1-0.4-0.3-0.1-0.6c0,0,0.1,0,0.1-0.1c0.2-0.1,0.4-0.2,0.5-0.3c0.2-0.1,0.3-0.2,0.5-0.3c0.2-0.1,0.3-0.3,0.3-0.6v-0.4
		c0-0.1,0-0.3-0.1-0.4c0,0-0.1-0.1,0-0.2v-0.2c0-0.1,0.1-0.1,0.1-0.2c0,0,0-0.1,0.1-0.2c0.2-0.1,0.4-0.1,0.5,0s0.3,0.2,0.4,0.4
		c0.4,0.4,0.7,0.7,1.1,0.8h0.2 M221.4,297.3h0.2c0.2-0.1,0.3-0.1,0.4-0.1h0.4c0.1,0.2,0.1,0.4,0,0.5s-0.2,0.3-0.3,0.5
		c-0.1,0.1-0.1,0.2-0.1,0.3s-0.1,0.2-0.1,0.3c-0.2,0.2-0.1,0.4,0,0.6c0.1,0.1,0.2,0.2,0.2,0.3s0.1,0.2,0.2,0.3s0.1,0.2,0.1,0.2
		c0,0.1,0,0.2,0.1,0.2c0.1,0.1,0.1,0.2,0.1,0.4c0,0.1-0.1,0.2-0.2,0.3c-0.1,0.1-0.2,0.1-0.3,0c-0.2-0.1-0.4-0.1-0.6-0.1
		s-0.4-0.1-0.5-0.1c-0.1-0.1-0.3-0.1-0.6,0c-0.1,0-0.2,0.1-0.2,0.2c-0.1,0.2-0.2,0.3-0.3,0.5s-0.2,0.3-0.5,0.5
		c-0.1,0.1-0.1,0.1-0.2,0c0-0.1-0.1-0.1-0.2,0c0-0.1,0-0.1-0.1-0.2c-0.1,0-0.1-0.1,0-0.2c0,0,0.1-0.1,0-0.3v-0.9
		c0-0.3-0.1-0.4-0.3-0.5c-0.1,0-0.2-0.1-0.3-0.1c-0.1-0.1-0.2-0.1-0.3-0.1s-0.2-0.1-0.3-0.1s-0.2-0.1-0.3-0.2
		c-0.3-0.1-0.4-0.3-0.1-0.6c0,0,0.1,0,0.1-0.1c0.2-0.1,0.4-0.2,0.5-0.3c0.2-0.1,0.3-0.2,0.5-0.3c0.2-0.1,0.3-0.3,0.3-0.6v-0.4
		c0-0.1,0-0.3-0.1-0.4c0,0-0.1-0.1,0-0.2v-0.2c0-0.1,0.1-0.1,0.1-0.2c0,0,0-0.1,0.1-0.2c0.2-0.1,0.4-0.1,0.5,0s0.3,0.2,0.4,0.4
		c0.4,0.4,0.7,0.7,1.1,0.8h0.2"/>
	<path class="st2" d="M117.4,212.3h0.2c0.2-0.1,0.3-0.1,0.4-0.1h0.4c0.1,0.2,0.1,0.4,0,0.5s-0.2,0.3-0.3,0.5
		c-0.1,0.1-0.1,0.2-0.1,0.3s-0.1,0.2-0.1,0.3c-0.2,0.2-0.1,0.4,0,0.6c0.1,0.1,0.2,0.2,0.2,0.3s0.1,0.2,0.2,0.3s0.1,0.2,0.1,0.2
		c0,0.1,0,0.2,0.1,0.2c0.1,0.1,0.1,0.2,0.1,0.4c0,0.1-0.1,0.2-0.2,0.3s-0.2,0.1-0.3,0c-0.2-0.1-0.4-0.1-0.6-0.1s-0.4-0.1-0.5-0.1
		c-0.1-0.1-0.3-0.1-0.6,0c-0.1,0-0.2,0.1-0.2,0.2c-0.1,0.2-0.2,0.3-0.3,0.5s-0.2,0.3-0.5,0.5c-0.1,0.1-0.1,0.1-0.2,0
		c0-0.1-0.1-0.1-0.2,0c0-0.1,0-0.1-0.1-0.2c-0.1,0-0.1-0.1,0-0.2c0,0,0.1-0.1,0-0.3v-0.9c0-0.3-0.1-0.4-0.3-0.5
		c-0.1,0-0.2-0.1-0.3-0.1c-0.1-0.1-0.2-0.1-0.3-0.1s-0.2-0.1-0.3-0.1s-0.2-0.1-0.3-0.2c-0.3-0.1-0.4-0.3-0.1-0.6c0,0,0.1,0,0.1-0.1
		c0.2-0.1,0.4-0.2,0.5-0.3c0.2-0.1,0.3-0.2,0.5-0.3s0.3-0.3,0.3-0.6v-0.4c0-0.1,0-0.3-0.1-0.4c0,0-0.1-0.1,0-0.2v-0.2
		c0-0.1,0.1-0.1,0.1-0.2c0,0,0-0.1,0.1-0.2c0.2-0.1,0.4-0.1,0.5,0s0.3,0.2,0.4,0.4c0.4,0.4,0.7,0.7,1.1,0.8h0.2"/>
	<path class="st0" d="M142,73.1h0.2c0.2-0.1,0.3-0.1,0.4-0.1h0.4c0.1,0.2,0.1,0.4,0,0.5s-0.2,0.3-0.3,0.5c-0.1,0.1-0.1,0.2-0.1,0.3
		s-0.1,0.2-0.1,0.3c-0.2,0.2-0.1,0.4,0,0.6c0.1,0.1,0.2,0.2,0.2,0.3s0.1,0.2,0.2,0.3C143,75.9,143,76,143,76c0,0.1,0,0.2,0.1,0.2
		c0.1,0.1,0.1,0.2,0.1,0.4c0,0.1-0.1,0.2-0.2,0.3c-0.1,0.1-0.2,0.1-0.3,0c-0.2-0.1-0.4-0.1-0.6-0.1s-0.4-0.1-0.5-0.1
		c-0.1-0.1-0.3-0.1-0.6,0c-0.1,0-0.2,0.1-0.2,0.2c-0.1,0.2-0.2,0.3-0.3,0.5s-0.2,0.3-0.5,0.5c-0.1,0.1-0.1,0.1-0.2,0
		c0-0.1-0.1-0.1-0.2,0c0-0.1,0-0.1-0.1-0.2c-0.1,0-0.1-0.1,0-0.2c0,0,0.1-0.1,0-0.3v-0.9c0-0.3-0.1-0.4-0.3-0.5
		c-0.1,0-0.2-0.1-0.3-0.1c-0.1-0.1-0.2-0.1-0.3-0.1s-0.2-0.1-0.3-0.1s-0.2-0.1-0.3-0.2c-0.3-0.1-0.4-0.3-0.1-0.6c0,0,0.1,0,0.1-0.1
		c0.2-0.1,0.4-0.2,0.5-0.3c0.2-0.1,0.3-0.2,0.5-0.3s0.3-0.3,0.3-0.6V73c0-0.1,0-0.3-0.1-0.4c0,0-0.1-0.1,0-0.2v-0.2
		c0-0.1,0.1-0.1,0.1-0.2c0,0,0-0.1,0.1-0.2c0.2-0.1,0.4-0.1,0.5,0s0.3,0.2,0.4,0.4c0.4,0.4,0.7,0.7,1.1,0.8h0.2 M404.4,625.3h0.2
		c0.2-0.1,0.3-0.1,0.4-0.1h0.4c0.1,0.2,0.1,0.4,0,0.5s-0.2,0.3-0.3,0.5c-0.1,0.1-0.1,0.2-0.1,0.3s-0.1,0.2-0.1,0.3
		c-0.2,0.2-0.1,0.4,0,0.6c0.1,0.1,0.2,0.2,0.2,0.3s0.1,0.2,0.2,0.3s0.1,0.2,0.1,0.2c0,0.1,0,0.2,0.1,0.2c0.1,0.1,0.1,0.2,0.1,0.4
		c0,0.1-0.1,0.2-0.2,0.3s-0.2,0.1-0.3,0c-0.2-0.1-0.4-0.1-0.6-0.1s-0.4-0.1-0.5-0.1c-0.1-0.1-0.3-0.1-0.6,0c-0.1,0-0.2,0.1-0.2,0.2
		c-0.1,0.2-0.2,0.3-0.3,0.5s-0.2,0.3-0.5,0.5c-0.1,0.1-0.1,0.1-0.2,0c0-0.1-0.1-0.1-0.2,0c0-0.1,0-0.1-0.1-0.2c-0.1,0-0.1-0.1,0-0.2
		c0,0,0.1-0.1,0-0.3v-0.9c0-0.3-0.1-0.4-0.3-0.5c-0.1,0-0.2-0.1-0.3-0.1c-0.1-0.1-0.2-0.1-0.3-0.1s-0.2-0.1-0.3-0.1
		s-0.2-0.1-0.3-0.2c-0.3-0.1-0.4-0.3-0.1-0.6c0,0,0.1,0,0.1-0.1c0.2-0.1,0.4-0.2,0.5-0.3c0.2-0.1,0.3-0.2,0.5-0.3s0.3-0.3,0.3-0.6
		v-0.4c0-0.1,0-0.3-0.1-0.4c0,0-0.1-0.1,0-0.2v-0.2c0-0.1,0.1-0.1,0.1-0.2c0,0,0-0.1,0.1-0.2c0.2-0.1,0.4-0.1,0.5,0s0.3,0.2,0.4,0.4
		c0.4,0.4,0.7,0.7,1.1,0.8h0.2 M67.4,834.3h0.2c0.2-0.1,0.3-0.1,0.4-0.1h0.4c0.1,0.2,0.1,0.4,0,0.5s-0.2,0.3-0.3,0.5
		c-0.1,0.1-0.1,0.2-0.1,0.3s-0.1,0.2-0.1,0.3c-0.2,0.2-0.1,0.4,0,0.6c0.1,0.1,0.2,0.2,0.2,0.3s0.1,0.2,0.2,0.3s0.1,0.2,0.1,0.2
		c0,0.1,0,0.2,0.1,0.2c0.1,0.1,0.1,0.2,0.1,0.4c0,0.1-0.1,0.2-0.2,0.3s-0.2,0.1-0.3,0c-0.2-0.1-0.4-0.1-0.6-0.1s-0.4-0.1-0.5-0.1
		c-0.1-0.1-0.3-0.1-0.6,0c-0.1,0-0.2,0.1-0.2,0.2c-0.1,0.2-0.2,0.3-0.3,0.5s-0.2,0.3-0.5,0.5c-0.1,0.1-0.1,0.1-0.2,0
		c0-0.1-0.1-0.1-0.2,0c0-0.1,0-0.1-0.1-0.2c-0.1,0-0.1-0.1,0-0.2c0,0,0.1-0.1,0-0.3v-0.9c0-0.3-0.1-0.4-0.3-0.5
		c-0.1,0-0.2-0.1-0.3-0.1c-0.1-0.1-0.2-0.1-0.3-0.1s-0.2-0.1-0.3-0.1s-0.2-0.1-0.3-0.2c-0.3-0.1-0.4-0.3-0.1-0.6c0,0,0.1,0,0.1-0.1
		c0.2-0.1,0.4-0.2,0.5-0.3c0.2-0.1,0.3-0.2,0.5-0.3s0.3-0.3,0.3-0.6v-0.4c0-0.1,0-0.3-0.1-0.4c0,0-0.1-0.1,0-0.2v-0.2
		c0-0.1,0.1-0.1,0.1-0.2c0,0,0-0.1,0.1-0.2c0.2-0.1,0.4-0.1,0.5,0s0.3,0.2,0.4,0.4c0.4,0.4,0.7,0.7,1.1,0.8H67 M594.4,861.3h0.2
		c0.2-0.1,0.3-0.1,0.4-0.1h0.4c0.1,0.2,0.1,0.4,0,0.5s-0.2,0.3-0.3,0.5c-0.1,0.1-0.1,0.2-0.1,0.3s-0.1,0.2-0.1,0.3
		c-0.2,0.2-0.1,0.4,0,0.6c0.1,0.1,0.2,0.2,0.2,0.3s0.1,0.2,0.2,0.3s0.1,0.2,0.1,0.2c0,0.1,0,0.2,0.1,0.2c0.1,0.1,0.1,0.2,0.1,0.4
		c0,0.1-0.1,0.2-0.2,0.3c-0.1,0.1-0.2,0.1-0.3,0c-0.2-0.1-0.4-0.1-0.6-0.1s-0.4-0.1-0.5-0.1c-0.1-0.1-0.3-0.1-0.6,0
		c-0.1,0-0.2,0.1-0.2,0.2c-0.1,0.2-0.2,0.3-0.3,0.5s-0.2,0.3-0.5,0.5c-0.1,0.1-0.1,0.1-0.2,0c0-0.1-0.1-0.1-0.2,0
		c0-0.1,0-0.1-0.1-0.2c-0.1,0-0.1-0.1,0-0.2c0,0,0.1-0.1,0-0.3v-0.9c0-0.3-0.1-0.4-0.3-0.5c-0.1,0-0.2-0.1-0.3-0.1
		c-0.1-0.1-0.2-0.1-0.3-0.1s-0.2-0.1-0.3-0.1s-0.2-0.1-0.3-0.2c-0.3-0.1-0.4-0.3-0.1-0.6c0,0,0.1,0,0.1-0.1c0.2-0.1,0.4-0.2,0.5-0.3
		c0.2-0.1,0.3-0.2,0.5-0.3s0.3-0.3,0.3-0.6v-0.4c0-0.1,0-0.3-0.1-0.4c0,0-0.1-0.1,0-0.2v-0.2c0-0.1,0.1-0.1,0.1-0.2
		c0,0,0-0.1,0.1-0.2c0.2-0.1,0.4-0.1,0.5,0s0.3,0.2,0.4,0.4c0.4,0.4,0.7,0.7,1.1,0.8h0.2 M423.4,733.3h0.2c0.2-0.1,0.3-0.1,0.4-0.1
		h0.4c0.1,0.2,0.1,0.4,0,0.5s-0.2,0.3-0.3,0.5c-0.1,0.1-0.1,0.2-0.1,0.3s-0.1,0.2-0.1,0.3c-0.2,0.2-0.1,0.4,0,0.6
		c0.1,0.1,0.2,0.2,0.2,0.3s0.1,0.2,0.2,0.3s0.1,0.2,0.1,0.2c0,0.1,0,0.2,0.1,0.2c0.1,0.1,0.1,0.2,0.1,0.4c0,0.1-0.1,0.2-0.2,0.3
		s-0.2,0.1-0.3,0c-0.2-0.1-0.4-0.1-0.6-0.1s-0.4-0.1-0.5-0.1c-0.1-0.1-0.3-0.1-0.6,0c-0.1,0-0.2,0.1-0.2,0.2
		c-0.1,0.2-0.2,0.3-0.3,0.5s-0.2,0.3-0.5,0.5c-0.1,0.1-0.1,0.1-0.2,0c0-0.1-0.1-0.1-0.2,0c0-0.1,0-0.1-0.1-0.2c-0.1,0-0.1-0.1,0-0.2
		c0,0,0.1-0.1,0-0.3v-0.9c0-0.3-0.1-0.4-0.3-0.5c-0.1,0-0.2-0.1-0.3-0.1c-0.1-0.1-0.2-0.1-0.3-0.1s-0.2-0.1-0.3-0.1
		s-0.2-0.1-0.3-0.2c-0.3-0.1-0.4-0.3-0.1-0.6c0,0,0.1,0,0.1-0.1c0.2-0.1,0.4-0.2,0.5-0.3c0.2-0.1,0.3-0.2,0.5-0.3s0.3-0.3,0.3-0.6
		v-0.4c0-0.1,0-0.3-0.1-0.4c0,0-0.1-0.1,0-0.2v-0.2c0-0.1,0.1-0.1,0.1-0.2c0,0,0-0.1,0.1-0.2c0.2-0.1,0.4-0.1,0.5,0s0.3,0.2,0.4,0.4
		c0.4,0.4,0.7,0.7,1.1,0.8h0.2"/>
	<path class="st3" d="M562.7,244.9h0.3c0.2-0.1,0.5-0.2,0.7-0.1s0.4,0,0.7,0c0.1,0.3,0.2,0.6,0,0.8c-0.1,0.2-0.3,0.5-0.4,0.7
		c-0.1,0.1-0.2,0.3-0.2,0.5s-0.1,0.3-0.2,0.5c-0.2,0.3-0.2,0.6,0,0.8c0.1,0.1,0.2,0.3,0.3,0.5s0.2,0.3,0.3,0.5
		c0.1,0.1,0.2,0.2,0.2,0.4c0,0.1,0.1,0.2,0.2,0.4c0.1,0.1,0.2,0.3,0.2,0.6c0,0.1-0.1,0.3-0.3,0.4s-0.3,0.1-0.5,0
		c-0.3-0.1-0.6-0.2-0.9-0.2s-0.6-0.1-0.8-0.2c-0.2-0.1-0.5-0.1-0.9,0c-0.1,0-0.2,0.1-0.4,0.3c-0.2,0.3-0.3,0.5-0.4,0.8
		s-0.4,0.5-0.7,0.8c-0.1,0.1-0.2,0.2-0.3,0.1s-0.2-0.1-0.3,0c0-0.1-0.1-0.2-0.2-0.3s-0.1-0.1,0-0.3c0.1-0.1,0.1-0.2,0.1-0.5
		l-0.1-1.3c0-0.4-0.2-0.7-0.5-0.7c-0.1-0.1-0.3-0.1-0.4-0.2c-0.2-0.1-0.3-0.1-0.5-0.1c-0.1-0.1-0.3-0.1-0.4-0.2
		c-0.2-0.1-0.3-0.1-0.5-0.3c-0.5-0.2-0.6-0.5-0.1-0.9c0.1,0,0.1,0,0.1-0.1c0.3-0.1,0.6-0.3,0.8-0.4s0.5-0.3,0.8-0.4s0.5-0.4,0.4-0.9
		v-0.7c0-0.2,0-0.4-0.2-0.6c-0.1-0.1-0.1-0.1-0.1-0.2v-0.3c0.1-0.1,0.1-0.2,0.1-0.3s0-0.2,0.1-0.3c0.3-0.1,0.6-0.1,0.8,0.1l0.5,0.5
		c0.6,0.7,1.1,1,1.6,1.1c0.1,0.1,0.2,0.1,0.3,0"/>
	<path class="st4" d="M596.9,454.1h0.3c0.2-0.1,0.5-0.2,0.7-0.1s0.4,0,0.7,0c0.1,0.3,0.2,0.6,0,0.8c-0.1,0.2-0.3,0.5-0.4,0.7
		c-0.1,0.1-0.2,0.3-0.2,0.5s-0.1,0.3-0.2,0.5c-0.2,0.3-0.2,0.6,0,0.8c0.1,0.1,0.2,0.3,0.3,0.5s0.2,0.3,0.3,0.5
		c0.1,0.1,0.2,0.2,0.2,0.4c0,0.1,0.1,0.2,0.2,0.4c0.1,0.1,0.2,0.3,0.2,0.6c0,0.1-0.1,0.3-0.3,0.4s-0.3,0.1-0.5,0
		c-0.3-0.1-0.6-0.2-0.9-0.2s-0.6-0.1-0.8-0.2s-0.5-0.1-0.9,0c-0.1,0-0.2,0.1-0.4,0.3c-0.2,0.3-0.3,0.5-0.4,0.8s-0.4,0.5-0.7,0.8
		c-0.1,0.1-0.2,0.2-0.3,0.1s-0.2-0.1-0.3,0c0-0.1-0.1-0.2-0.2-0.3s-0.1-0.1,0-0.3c0.1-0.1,0.1-0.2,0.1-0.5l-0.1-1.3
		c0-0.4-0.2-0.7-0.5-0.7c-0.1-0.1-0.3-0.1-0.4-0.2c-0.2-0.1-0.3-0.1-0.5-0.1c-0.1-0.1-0.3-0.1-0.4-0.2c-0.2-0.1-0.3-0.1-0.5-0.3
		c-0.5-0.2-0.6-0.5-0.1-0.9c0.1,0,0.1,0,0.1-0.1c0.3-0.1,0.6-0.3,0.8-0.4s0.5-0.3,0.8-0.4s0.5-0.4,0.4-0.9v-0.7c0-0.2,0-0.4-0.2-0.6
		c-0.1-0.1-0.1-0.1-0.1-0.2v-0.3c0.1-0.1,0.1-0.2,0.1-0.3s0-0.2,0.1-0.3c0.3-0.1,0.6-0.1,0.8,0.1l0.5,0.5c0.6,0.7,1.1,1,1.6,1.1
		c0.1,0.1,0.2,0.1,0.3,0 M529.9,380.1h0.3c0.2-0.1,0.5-0.2,0.7-0.1s0.4,0,0.7,0c0.1,0.3,0.2,0.6,0,0.8c-0.1,0.2-0.3,0.5-0.4,0.7
		c-0.1,0.1-0.2,0.3-0.2,0.5s-0.1,0.3-0.2,0.5c-0.2,0.3-0.2,0.6,0,0.8c0.1,0.1,0.2,0.3,0.3,0.5s0.2,0.3,0.3,0.5
		c0.1,0.1,0.2,0.2,0.2,0.4c0,0.1,0.1,0.2,0.2,0.4c0.1,0.1,0.2,0.3,0.2,0.6c0,0.1-0.1,0.3-0.3,0.4s-0.3,0.1-0.5,0
		c-0.3-0.1-0.6-0.2-0.9-0.2s-0.6-0.1-0.8-0.2s-0.5-0.1-0.9,0c-0.1,0-0.2,0.1-0.4,0.3c-0.2,0.3-0.3,0.5-0.4,0.8s-0.4,0.5-0.7,0.8
		c-0.1,0.1-0.2,0.2-0.3,0.1s-0.2-0.1-0.3,0c0-0.1-0.1-0.2-0.2-0.3s-0.1-0.1,0-0.3c0.1-0.1,0.1-0.2,0.1-0.5l-0.1-1.3
		c0-0.4-0.2-0.7-0.5-0.7c-0.1-0.1-0.3-0.1-0.4-0.2c-0.2-0.1-0.3-0.1-0.5-0.1c-0.1-0.1-0.3-0.1-0.4-0.2c-0.2-0.1-0.3-0.1-0.5-0.3
		c-0.5-0.2-0.6-0.5-0.1-0.9c0.1,0,0.1,0,0.1-0.1c0.3-0.1,0.6-0.3,0.8-0.4s0.5-0.3,0.8-0.4s0.5-0.4,0.4-0.9v-0.7c0-0.2,0-0.4-0.2-0.6
		c-0.1-0.1-0.1-0.1-0.1-0.2v-0.3c0.1-0.1,0.1-0.2,0.1-0.3s0-0.2,0.1-0.3c0.3-0.1,0.6-0.1,0.8,0.1l0.5,0.5c0.6,0.7,1.1,1,1.6,1.1
		c0.1,0.1,0.2,0.1,0.3,0 M594.9,962.1h0.3c0.2-0.1,0.5-0.2,0.7-0.1s0.4,0,0.7,0c0.1,0.3,0.2,0.6,0,0.8c-0.1,0.2-0.3,0.5-0.4,0.7
		c-0.1,0.1-0.2,0.3-0.2,0.5s-0.1,0.3-0.2,0.5c-0.2,0.3-0.2,0.6,0,0.8c0.1,0.1,0.2,0.3,0.3,0.5s0.2,0.3,0.3,0.5
		c0.1,0.1,0.2,0.2,0.2,0.4c0,0.1,0.1,0.2,0.2,0.4c0.1,0.1,0.2,0.3,0.2,0.6c0,0.1-0.1,0.3-0.3,0.4s-0.3,0.1-0.5,0
		c-0.3-0.1-0.6-0.2-0.9-0.2s-0.6-0.1-0.8-0.2c-0.2-0.1-0.5-0.1-0.9,0c-0.1,0-0.2,0.1-0.4,0.3c-0.2,0.3-0.3,0.5-0.4,0.8
		s-0.4,0.5-0.7,0.8c-0.1,0.1-0.2,0.2-0.3,0.1c-0.1-0.1-0.2-0.1-0.3,0c0-0.1-0.1-0.2-0.2-0.3s-0.1-0.1,0-0.3c0.1-0.1,0.1-0.2,0.1-0.5
		l-0.1-1.3c0-0.4-0.2-0.7-0.5-0.7c-0.1-0.1-0.3-0.1-0.4-0.2c-0.2-0.1-0.3-0.1-0.5-0.1c-0.1-0.1-0.3-0.1-0.4-0.2
		c-0.2-0.1-0.3-0.1-0.5-0.3c-0.5-0.2-0.6-0.5-0.1-0.9c0.1,0,0.1,0,0.1-0.1c0.3-0.1,0.6-0.3,0.8-0.4s0.5-0.3,0.8-0.4s0.5-0.4,0.4-0.9
		v-0.7c0-0.2,0-0.4-0.2-0.6c-0.1-0.1-0.1-0.1-0.1-0.2v-0.3c0.1-0.1,0.1-0.2,0.1-0.3s0-0.2,0.1-0.3c0.3-0.1,0.6-0.1,0.8,0.1l0.5,0.5
		c0.6,0.7,1.1,1,1.6,1.1c0.1,0.1,0.2,0.1,0.3,0"/>
	<path class="st3" d="M154.9,644.1h0.3c0.2-0.1,0.5-0.2,0.7-0.1s0.4,0,0.7,0c0.1,0.3,0.2,0.6,0,0.8c-0.1,0.2-0.3,0.5-0.4,0.7
		c-0.1,0.1-0.2,0.3-0.2,0.5s-0.1,0.3-0.2,0.5c-0.2,0.3-0.2,0.6,0,0.8c0.1,0.1,0.2,0.3,0.3,0.5s0.2,0.3,0.3,0.5
		c0.1,0.1,0.2,0.2,0.2,0.4c0,0.1,0.1,0.2,0.2,0.4c0.1,0.1,0.2,0.3,0.2,0.6c0,0.1-0.1,0.3-0.3,0.4s-0.3,0.1-0.5,0
		c-0.3-0.1-0.6-0.2-0.9-0.2s-0.6-0.1-0.8-0.2c-0.2-0.1-0.5-0.1-0.9,0c-0.1,0-0.2,0.1-0.4,0.3c-0.2,0.3-0.3,0.5-0.4,0.8
		s-0.4,0.5-0.7,0.8c-0.1,0.1-0.2,0.2-0.3,0.1c-0.1-0.1-0.2-0.1-0.3,0c0-0.1-0.1-0.2-0.2-0.3s-0.1-0.1,0-0.3c0.1-0.1,0.1-0.2,0.1-0.5
		l-0.1-1.3c0-0.4-0.2-0.7-0.5-0.7c-0.1-0.1-0.3-0.1-0.4-0.2c-0.2-0.1-0.3-0.1-0.5-0.1c-0.1-0.1-0.3-0.1-0.4-0.2
		c-0.2-0.1-0.3-0.1-0.5-0.3c-0.5-0.2-0.6-0.5-0.1-0.9c0.1,0,0.1,0,0.1-0.1c0.3-0.1,0.6-0.3,0.8-0.4s0.5-0.3,0.8-0.4s0.5-0.4,0.4-0.9
		v-0.7c0-0.2,0-0.4-0.2-0.6c-0.1-0.1-0.1-0.1-0.1-0.2v-0.3c0.1-0.1,0.1-0.2,0.1-0.3s0-0.2,0.1-0.3c0.3-0.1,0.6-0.1,0.8,0.1l0.5,0.5
		c0.6,0.7,1.1,1,1.6,1.1c0.1,0.1,0.2,0.1,0.3,0"/>
	<path class="st4" d="M110.9,180.1h0.3c0.2-0.1,0.5-0.2,0.7-0.1s0.4,0,0.7,0c0.1,0.3,0.2,0.6,0,0.8c-0.1,0.2-0.3,0.5-0.4,0.7
		c-0.1,0.1-0.2,0.3-0.2,0.5s-0.1,0.3-0.2,0.5c-0.2,0.3-0.2,0.6,0,0.8c0.1,0.1,0.2,0.3,0.3,0.5s0.2,0.3,0.3,0.5
		c0.1,0.1,0.2,0.2,0.2,0.4c0,0.1,0.1,0.2,0.2,0.4c0.1,0.1,0.2,0.3,0.2,0.6c0,0.1-0.1,0.3-0.3,0.4s-0.3,0.1-0.5,0
		c-0.3-0.1-0.6-0.2-0.9-0.2s-0.6-0.1-0.8-0.2c-0.2-0.1-0.5-0.1-0.9,0c-0.1,0-0.2,0.1-0.4,0.3c-0.2,0.3-0.3,0.5-0.4,0.8
		s-0.4,0.5-0.7,0.8c-0.1,0.1-0.2,0.2-0.3,0.1c-0.1-0.1-0.2-0.1-0.3,0c0-0.1-0.1-0.2-0.2-0.3s-0.1-0.1,0-0.3c0.1-0.1,0.1-0.2,0.1-0.5
		l-0.1-1.3c0-0.4-0.2-0.7-0.5-0.7c-0.1-0.1-0.3-0.1-0.4-0.2c-0.2-0.1-0.3-0.1-0.5-0.1c-0.1-0.1-0.3-0.1-0.4-0.2
		c-0.2-0.1-0.3-0.1-0.5-0.3c-0.5-0.2-0.6-0.5-0.1-0.9c0.1,0,0.1,0,0.1-0.1c0.3-0.1,0.6-0.3,0.8-0.4s0.5-0.3,0.8-0.4s0.5-0.4,0.4-0.9
		v-0.7c0-0.2,0-0.4-0.2-0.6c-0.1-0.1-0.1-0.1-0.1-0.2v-0.3c0.1-0.1,0.1-0.2,0.1-0.3s0-0.2,0.1-0.3c0.3-0.1,0.6-0.1,0.8,0.1l0.5,0.5
		c0.6,0.7,1.1,1,1.6,1.1c0.1,0.1,0.2,0.1,0.3,0 M57.9,373.1h0.3c0.2-0.1,0.5-0.2,0.7-0.1s0.4,0,0.7,0c0.1,0.3,0.2,0.6,0,0.8
		c-0.1,0.2-0.3,0.5-0.4,0.7c-0.1,0.1-0.2,0.3-0.2,0.5s-0.1,0.3-0.2,0.5c-0.2,0.3-0.2,0.6,0,0.8c0.1,0.1,0.2,0.3,0.3,0.5
		s0.2,0.3,0.3,0.5c0.1,0.1,0.2,0.2,0.2,0.4c0,0.1,0.1,0.2,0.2,0.4c0.1,0.1,0.2,0.3,0.2,0.6c0,0.1-0.1,0.3-0.3,0.4s-0.3,0.1-0.5,0
		c-0.3-0.1-0.6-0.2-0.9-0.2s-0.6-0.1-0.8-0.2s-0.5-0.1-0.9,0c-0.1,0-0.2,0.1-0.4,0.3c-0.2,0.3-0.3,0.5-0.4,0.8s-0.4,0.5-0.7,0.8
		c-0.1,0.1-0.2,0.2-0.3,0.1s-0.2-0.1-0.3,0c0-0.1-0.1-0.2-0.2-0.3s-0.1-0.1,0-0.3c0.1-0.1,0.1-0.2,0.1-0.5l-0.1-1.3
		c0-0.4-0.2-0.7-0.5-0.7c-0.1-0.1-0.3-0.1-0.4-0.2c-0.2-0.1-0.3-0.1-0.5-0.1c-0.1-0.1-0.3-0.1-0.4-0.2c-0.2-0.1-0.3-0.1-0.5-0.3
		c-0.5-0.2-0.6-0.5-0.1-0.9c0.1,0,0.1,0,0.1-0.1c0.3-0.1,0.6-0.3,0.8-0.4s0.5-0.3,0.8-0.4s0.5-0.4,0.4-0.9v-0.7c0-0.2,0-0.4-0.2-0.6
		c-0.1-0.1-0.1-0.1-0.1-0.2v-0.3c0.1-0.1,0.1-0.2,0.1-0.3s0-0.2,0.1-0.3c0.3-0.1,0.6-0.1,0.8,0.1l0.5,0.5c0.6,0.7,1.1,1,1.6,1.1
		c0.1,0.1,0.2,0.1,0.3,0 M415.9,189.1h0.3c0.2-0.1,0.5-0.2,0.7-0.1s0.4,0,0.7,0c0.1,0.3,0.2,0.6,0,0.8c-0.1,0.2-0.3,0.5-0.4,0.7
		c-0.1,0.1-0.2,0.3-0.2,0.5s-0.1,0.3-0.2,0.5c-0.2,0.3-0.2,0.6,0,0.8c0.1,0.1,0.2,0.3,0.3,0.5s0.2,0.3,0.3,0.5
		c0.1,0.1,0.2,0.2,0.2,0.4c0,0.1,0.1,0.2,0.2,0.4c0.1,0.1,0.2,0.3,0.2,0.6c0,0.1-0.1,0.3-0.3,0.4s-0.3,0.1-0.5,0
		c-0.3-0.1-0.6-0.2-0.9-0.2s-0.6-0.1-0.8-0.2c-0.2-0.1-0.5-0.1-0.9,0c-0.1,0-0.2,0.1-0.4,0.3c-0.2,0.3-0.3,0.5-0.4,0.8
		s-0.4,0.5-0.7,0.8c-0.1,0.1-0.2,0.2-0.3,0.1c-0.1-0.1-0.2-0.1-0.3,0c0-0.1-0.1-0.2-0.2-0.3s-0.1-0.1,0-0.3c0.1-0.1,0.1-0.2,0.1-0.5
		l-0.1-1.3c0-0.4-0.2-0.7-0.5-0.7c-0.1-0.1-0.3-0.1-0.4-0.2c-0.2-0.1-0.3-0.1-0.5-0.1c-0.1-0.1-0.3-0.1-0.4-0.2
		c-0.2-0.1-0.3-0.1-0.5-0.3c-0.5-0.2-0.6-0.5-0.1-0.9c0.1,0,0.1,0,0.1-0.1c0.3-0.1,0.6-0.3,0.8-0.4s0.5-0.3,0.8-0.4s0.5-0.4,0.4-0.9
		v-0.7c0-0.2,0-0.4-0.2-0.6c-0.1-0.1-0.1-0.1-0.1-0.2v-0.3c0.1-0.1,0.1-0.2,0.1-0.3s0-0.2,0.1-0.3c0.3-0.1,0.6-0.1,0.8,0.1l0.5,0.5
		c0.6,0.7,1.1,1,1.6,1.1c0.1,0.1,0.2,0.1,0.3,0 M161.9,303.1h0.3c0.2-0.1,0.5-0.2,0.7-0.1s0.4,0,0.7,0c0.1,0.3,0.2,0.6,0,0.8
		c-0.1,0.2-0.3,0.5-0.4,0.7c-0.1,0.1-0.2,0.3-0.2,0.5s-0.1,0.3-0.2,0.5c-0.2,0.3-0.2,0.6,0,0.8c0.1,0.1,0.2,0.3,0.3,0.5
		s0.2,0.3,0.3,0.5c0.1,0.1,0.2,0.2,0.2,0.4c0,0.1,0.1,0.2,0.2,0.4c0.1,0.1,0.2,0.3,0.2,0.6c0,0.1-0.1,0.3-0.3,0.4s-0.3,0.1-0.5,0
		c-0.3-0.1-0.6-0.2-0.9-0.2s-0.6-0.1-0.8-0.2s-0.5-0.1-0.9,0c-0.1,0-0.2,0.1-0.4,0.3c-0.2,0.3-0.3,0.5-0.4,0.8s-0.4,0.5-0.7,0.8
		c-0.1,0.1-0.2,0.2-0.3,0.1s-0.2-0.1-0.3,0c0-0.1-0.1-0.2-0.2-0.3s-0.1-0.1,0-0.3c0.1-0.1,0.1-0.2,0.1-0.5l-0.1-1.3
		c0-0.4-0.2-0.7-0.5-0.7c-0.1-0.1-0.3-0.1-0.4-0.2c-0.2-0.1-0.3-0.1-0.5-0.1c-0.1-0.1-0.3-0.1-0.4-0.2c-0.2-0.1-0.3-0.1-0.5-0.3
		c-0.5-0.2-0.6-0.5-0.1-0.9c0.1,0,0.1,0,0.1-0.1c0.3-0.1,0.6-0.3,0.8-0.4s0.5-0.3,0.8-0.4s0.5-0.4,0.4-0.9v-0.7c0-0.2,0-0.4-0.2-0.6
		c-0.1-0.1-0.1-0.1-0.1-0.2v-0.3c0.1-0.1,0.1-0.2,0.1-0.3s0-0.2,0.1-0.3c0.3-0.1,0.6-0.1,0.8,0.1l0.5,0.5c0.6,0.7,1.1,1,1.6,1.1
		c0.1,0.1,0.2,0.1,0.3,0 M316.9,223.1h0.3c0.2-0.1,0.5-0.2,0.7-0.1s0.4,0,0.7,0c0.1,0.3,0.2,0.6,0,0.8c-0.1,0.2-0.3,0.5-0.4,0.7
		c-0.1,0.1-0.2,0.3-0.2,0.5s-0.1,0.3-0.2,0.5c-0.2,0.3-0.2,0.6,0,0.8c0.1,0.1,0.2,0.3,0.3,0.5s0.2,0.3,0.3,0.5
		c0.1,0.1,0.2,0.2,0.2,0.4c0,0.1,0.1,0.2,0.2,0.4c0.1,0.1,0.2,0.3,0.2,0.6c0,0.1-0.1,0.3-0.3,0.4s-0.3,0.1-0.5,0
		c-0.3-0.1-0.6-0.2-0.9-0.2s-0.6-0.1-0.8-0.2c-0.2-0.1-0.5-0.1-0.9,0c-0.1,0-0.2,0.1-0.4,0.3c-0.2,0.3-0.3,0.5-0.4,0.8
		s-0.4,0.5-0.7,0.8c-0.1,0.1-0.2,0.2-0.3,0.1c-0.1-0.1-0.2-0.1-0.3,0c0-0.1-0.1-0.2-0.2-0.3s-0.1-0.1,0-0.3c0.1-0.1,0.1-0.2,0.1-0.5
		l-0.1-1.3c0-0.4-0.2-0.7-0.5-0.7c-0.1-0.1-0.3-0.1-0.4-0.2c-0.2-0.1-0.3-0.1-0.5-0.1c-0.1-0.1-0.3-0.1-0.4-0.2
		c-0.2-0.1-0.3-0.1-0.5-0.3c-0.5-0.2-0.6-0.5-0.1-0.9c0.1,0,0.1,0,0.1-0.1c0.3-0.1,0.6-0.3,0.8-0.4s0.5-0.3,0.8-0.4s0.5-0.4,0.4-0.9
		v-0.7c0-0.2,0-0.4-0.2-0.6c-0.1-0.1-0.1-0.1-0.1-0.2v-0.3c0.1-0.1,0.1-0.2,0.1-0.3s0-0.2,0.1-0.3c0.3-0.1,0.6-0.1,0.8,0.1l0.5,0.5
		c0.6,0.7,1.1,1,1.6,1.1c0.1,0.1,0.2,0.1,0.3,0 M228.4,1870.3h0.2c0.2-0.1,0.3-0.1,0.4-0.1h0.4c0.1,0.2,0.1,0.4,0,0.5
		s-0.2,0.3-0.3,0.5c-0.1,0.1-0.1,0.2-0.1,0.3s-0.1,0.2-0.1,0.3c-0.2,0.2-0.1,0.4,0,0.6c0.1,0.1,0.2,0.2,0.2,0.3
		c0,0.1,0.1,0.2,0.2,0.3c0.1,0.1,0.1,0.2,0.1,0.2c0,0.1,0,0.2,0.1,0.2c0.1,0.1,0.1,0.2,0.1,0.4c0,0.1-0.1,0.2-0.2,0.3
		c-0.1,0.1-0.2,0.1-0.3,0c-0.2-0.1-0.4-0.1-0.6-0.1s-0.4-0.1-0.5-0.1c-0.1-0.1-0.3-0.1-0.6,0c-0.1,0-0.2,0.1-0.2,0.2
		c-0.1,0.2-0.2,0.3-0.3,0.5s-0.2,0.3-0.5,0.5c-0.1,0.1-0.1,0.1-0.2,0c0-0.1-0.1-0.1-0.2,0c0-0.1,0-0.1-0.1-0.2c-0.1,0-0.1-0.1,0-0.2
		c0,0,0.1-0.1,0-0.3v-0.9c0-0.3-0.1-0.4-0.3-0.5c-0.1,0-0.2-0.1-0.3-0.1c-0.1-0.1-0.2-0.1-0.3-0.1s-0.2-0.1-0.3-0.1
		s-0.2-0.1-0.3-0.2c-0.3-0.1-0.4-0.3-0.1-0.6c0,0,0.1,0,0.1-0.1c0.2-0.1,0.4-0.2,0.5-0.3c0.2-0.1,0.3-0.2,0.5-0.3
		c0.2-0.1,0.3-0.3,0.3-0.6v-0.4c0-0.1,0-0.3-0.1-0.4c0,0-0.1-0.1,0-0.2v-0.2c0-0.1,0.1-0.1,0.1-0.2c0,0,0-0.1,0.1-0.2
		c0.2-0.1,0.4-0.1,0.5,0s0.3,0.2,0.4,0.4c0.4,0.4,0.7,0.7,1.1,0.8h0.2 M221.4,1802.2h0.2c0.2-0.1,0.3-0.1,0.4-0.1h0.4
		c0.1,0.2,0.1,0.4,0,0.5s-0.2,0.3-0.3,0.5c-0.1,0.1-0.1,0.2-0.1,0.3s-0.1,0.2-0.1,0.3c-0.2,0.2-0.1,0.4,0,0.6
		c0.1,0.1,0.2,0.2,0.2,0.3s0.1,0.2,0.2,0.3s0.1,0.2,0.1,0.2c0,0.1,0,0.2,0.1,0.2c0.1,0.1,0.1,0.2,0.1,0.4c0,0.1-0.1,0.2-0.2,0.3
		c-0.1,0.1-0.2,0.1-0.3,0c-0.2-0.1-0.4-0.1-0.6-0.1s-0.4-0.1-0.5-0.1c-0.1-0.1-0.3-0.1-0.6,0c-0.1,0-0.2,0.1-0.2,0.2
		c-0.1,0.2-0.2,0.3-0.3,0.5s-0.2,0.3-0.5,0.5c-0.1,0.1-0.1,0.1-0.2,0c0-0.1-0.1-0.1-0.2,0c0-0.1,0-0.1-0.1-0.2c-0.1,0-0.1-0.1,0-0.2
		c0,0,0.1-0.1,0-0.3v-0.9c0-0.3-0.1-0.4-0.3-0.5c-0.1,0-0.2-0.1-0.3-0.1c-0.1-0.1-0.2-0.1-0.3-0.1s-0.2-0.1-0.3-0.1
		s-0.2-0.1-0.3-0.2c-0.3-0.1-0.4-0.3-0.1-0.6c0,0,0.1,0,0.1-0.1c0.2-0.1,0.4-0.2,0.5-0.3c0.2-0.1,0.3-0.2,0.5-0.3
		c0.2-0.1,0.3-0.3,0.3-0.6v-0.4c0-0.1,0-0.3-0.1-0.4c0,0-0.1-0.1,0-0.2v-0.2c0-0.1,0.1-0.1,0.1-0.2c0,0,0-0.1,0.1-0.2
		c0.2-0.1,0.4-0.1,0.5,0s0.3,0.2,0.4,0.4c0.4,0.4,0.7,0.7,1.1,0.8h0.2 M244.5,1595.5h0.2c0.2-0.1,0.3-0.1,0.4-0.1h0.4
		c0.1,0.2,0.1,0.4,0,0.5s-0.2,0.3-0.3,0.5c-0.1,0.1-0.1,0.2-0.1,0.3s-0.1,0.2-0.1,0.3c-0.2,0.2-0.1,0.4,0,0.6
		c0.1,0.1,0.2,0.2,0.2,0.3c0,0.1,0.1,0.2,0.2,0.3c0.1,0.1,0.1,0.2,0.1,0.2c0,0.1,0,0.2,0.1,0.2c0.1,0.1,0.1,0.2,0.1,0.4
		c0,0.1-0.1,0.2-0.2,0.3s-0.2,0.1-0.3,0c-0.2-0.1-0.4-0.1-0.6-0.1s-0.4-0.1-0.5-0.1c-0.1-0.1-0.3-0.1-0.6,0c-0.1,0-0.2,0.1-0.2,0.2
		c-0.1,0.2-0.2,0.3-0.3,0.5s-0.2,0.3-0.5,0.5c-0.1,0.1-0.1,0.1-0.2,0c0-0.1-0.1-0.1-0.2,0c0-0.1,0-0.1-0.1-0.2c-0.1,0-0.1-0.1,0-0.2
		c0,0,0.1-0.1,0-0.3v-0.9c0-0.3-0.1-0.4-0.3-0.5c-0.1,0-0.2-0.1-0.3-0.1c-0.1-0.1-0.2-0.1-0.3-0.1s-0.2-0.1-0.3-0.1
		s-0.2-0.1-0.3-0.2c-0.3-0.1-0.4-0.3-0.1-0.6c0,0,0.1,0,0.1-0.1c0.2-0.1,0.4-0.2,0.5-0.3c0.2-0.1,0.3-0.2,0.5-0.3s0.3-0.3,0.3-0.6
		v-0.4c0-0.1,0-0.3-0.1-0.4c0,0-0.1-0.1,0-0.2v-0.2c0-0.1,0.1-0.1,0.1-0.2c0,0,0-0.1,0.1-0.2c0.2-0.1,0.4-0.1,0.5,0s0.3,0.2,0.4,0.4
		c0.4,0.4,0.7,0.7,1.1,0.8h0.2 M165.5,1543.5h0.2c0.2-0.1,0.3-0.1,0.4-0.1h0.4c0.1,0.2,0.1,0.4,0,0.5s-0.2,0.3-0.3,0.5
		c-0.1,0.1-0.1,0.2-0.1,0.3s-0.1,0.2-0.1,0.3c-0.2,0.2-0.1,0.4,0,0.6c0.1,0.1,0.2,0.2,0.2,0.3c0,0.1,0.1,0.2,0.2,0.3
		c0.1,0.1,0.1,0.2,0.1,0.2c0,0.1,0,0.2,0.1,0.2c0.1,0.1,0.1,0.2,0.1,0.4c0,0.1-0.1,0.2-0.2,0.3s-0.2,0.1-0.3,0
		c-0.2-0.1-0.4-0.1-0.6-0.1s-0.4-0.1-0.5-0.1c-0.1-0.1-0.3-0.1-0.6,0c-0.1,0-0.2,0.1-0.2,0.2c-0.1,0.2-0.2,0.3-0.3,0.5
		s-0.2,0.3-0.5,0.5c-0.1,0.1-0.1,0.1-0.2,0c0-0.1-0.1-0.1-0.2,0c0-0.1,0-0.1-0.1-0.2c-0.1,0-0.1-0.1,0-0.2c0,0,0.1-0.1,0-0.3v-0.9
		c0-0.3-0.1-0.4-0.3-0.5c-0.1,0-0.2-0.1-0.3-0.1c-0.1-0.1-0.2-0.1-0.3-0.1s-0.2-0.1-0.3-0.1s-0.2-0.1-0.3-0.2
		c-0.3-0.1-0.4-0.3-0.1-0.6c0,0,0.1,0,0.1-0.1c0.2-0.1,0.4-0.2,0.5-0.3c0.2-0.1,0.3-0.2,0.5-0.3s0.3-0.3,0.3-0.6v-0.4
		c0-0.1,0-0.3-0.1-0.4c0,0-0.1-0.1,0-0.2v-0.2c0-0.1,0.1-0.1,0.1-0.2c0,0,0-0.1,0.1-0.2c0.2-0.1,0.4-0.1,0.5,0s0.3,0.2,0.4,0.4
		c0.4,0.4,0.7,0.7,1.1,0.8h0.2 M562.7,1749.8h0.3c0.2-0.1,0.5-0.2,0.7-0.1s0.4,0,0.7,0c0.1,0.3,0.2,0.6,0,0.8
		c-0.1,0.2-0.3,0.5-0.4,0.7c-0.1,0.1-0.2,0.3-0.2,0.5s-0.1,0.3-0.2,0.5c-0.2,0.3-0.2,0.6,0,0.8c0.1,0.1,0.2,0.3,0.3,0.5
		s0.2,0.3,0.3,0.5c0.1,0.1,0.2,0.2,0.2,0.4c0,0.1,0.1,0.2,0.2,0.4c0.1,0.1,0.2,0.3,0.2,0.6c0,0.1-0.1,0.3-0.3,0.4s-0.3,0.1-0.5,0
		c-0.3-0.1-0.6-0.2-0.9-0.2s-0.6-0.1-0.8-0.2s-0.5-0.1-0.9,0c-0.1,0-0.2,0.1-0.4,0.3c-0.2,0.3-0.3,0.5-0.4,0.8
		c-0.1,0.3-0.4,0.5-0.7,0.8c-0.1,0.1-0.2,0.2-0.3,0.1s-0.2-0.1-0.3,0c0-0.1-0.1-0.2-0.2-0.3s-0.1-0.1,0-0.3c0.1-0.1,0.1-0.2,0.1-0.5
		l-0.1-1.3c0-0.4-0.2-0.7-0.5-0.7c-0.1-0.1-0.3-0.1-0.4-0.2c-0.2-0.1-0.3-0.1-0.5-0.1c-0.1-0.1-0.3-0.1-0.4-0.2
		c-0.2-0.1-0.3-0.1-0.5-0.3c-0.5-0.2-0.6-0.5-0.1-0.9c0.1,0,0.1,0,0.1-0.1c0.3-0.1,0.6-0.3,0.8-0.4s0.5-0.3,0.8-0.4s0.5-0.4,0.4-0.9
		v-0.7c0-0.2,0-0.4-0.2-0.6c-0.1-0.1-0.1-0.1-0.1-0.2v-0.3c0.1-0.1,0.1-0.2,0.1-0.3s0-0.2,0.1-0.3c0.3-0.1,0.6-0.1,0.8,0.1l0.5,0.5
		c0.6,0.7,1.1,1,1.6,1.1c0.1,0.1,0.2,0.1,0.3,0 M282,1563.3h0.3c0.2-0.1,0.5-0.2,0.7-0.1s0.4,0,0.7,0c0.1,0.3,0.2,0.6,0,0.8
		c-0.1,0.2-0.3,0.5-0.4,0.7c-0.1,0.1-0.2,0.3-0.2,0.5s-0.1,0.3-0.2,0.5c-0.2,0.3-0.2,0.6,0,0.8c0.1,0.1,0.2,0.3,0.3,0.5
		c0.1,0.2,0.2,0.3,0.3,0.5c0.1,0.1,0.2,0.2,0.2,0.4c0,0.1,0.1,0.2,0.2,0.4c0.1,0.1,0.2,0.3,0.2,0.6c0,0.1-0.1,0.3-0.3,0.4
		c-0.2,0.1-0.3,0.1-0.5,0c-0.3-0.1-0.6-0.2-0.9-0.2s-0.6-0.1-0.8-0.2c-0.2-0.1-0.5-0.1-0.9,0c-0.1,0-0.2,0.1-0.4,0.3
		c-0.2,0.3-0.3,0.5-0.4,0.8s-0.4,0.5-0.7,0.8c-0.1,0.1-0.2,0.2-0.3,0.1c-0.1-0.1-0.2-0.1-0.3,0c0-0.1-0.1-0.2-0.2-0.3
		c-0.1-0.1-0.1-0.1,0-0.3c0.1-0.1,0.1-0.2,0.1-0.5l-0.1-1.3c0-0.4-0.2-0.7-0.5-0.7c-0.1-0.1-0.3-0.1-0.4-0.2
		c-0.2-0.1-0.3-0.1-0.5-0.1c-0.1-0.1-0.3-0.1-0.4-0.2c-0.2-0.1-0.3-0.1-0.5-0.3c-0.5-0.2-0.6-0.5-0.1-0.9c0.1,0,0.1,0,0.1-0.1
		c0.3-0.1,0.6-0.3,0.8-0.4c0.2-0.1,0.5-0.3,0.8-0.4s0.5-0.4,0.4-0.9v-0.7c0-0.2,0-0.4-0.2-0.6c-0.1-0.1-0.1-0.1-0.1-0.2v-0.3
		c0.1-0.1,0.1-0.2,0.1-0.3s0-0.2,0.1-0.3c0.3-0.1,0.6-0.1,0.8,0.1l0.5,0.5c0.6,0.7,1.1,1,1.6,1.1c0.1,0.1,0.2,0.1,0.3,0 M415.9,1694
		h0.3c0.2-0.1,0.5-0.2,0.7-0.1s0.4,0,0.7,0c0.1,0.3,0.2,0.6,0,0.8c-0.1,0.2-0.3,0.5-0.4,0.7c-0.1,0.1-0.2,0.3-0.2,0.5
		s-0.1,0.3-0.2,0.5c-0.2,0.3-0.2,0.6,0,0.8c0.1,0.1,0.2,0.3,0.3,0.5c0.1,0.2,0.2,0.3,0.3,0.5c0.1,0.1,0.2,0.2,0.2,0.4
		c0,0.1,0.1,0.2,0.2,0.4c0.1,0.1,0.2,0.3,0.2,0.6c0,0.1-0.1,0.3-0.3,0.4s-0.3,0.1-0.5,0c-0.3-0.1-0.6-0.2-0.9-0.2s-0.6-0.1-0.8-0.2
		s-0.5-0.1-0.9,0c-0.1,0-0.2,0.1-0.4,0.3c-0.2,0.3-0.3,0.5-0.4,0.8s-0.4,0.5-0.7,0.8c-0.1,0.1-0.2,0.2-0.3,0.1
		c-0.1-0.1-0.2-0.1-0.3,0c0-0.1-0.1-0.2-0.2-0.3c-0.1-0.1-0.1-0.1,0-0.3c0.1-0.1,0.1-0.2,0.1-0.5l-0.1-1.3c0-0.4-0.2-0.7-0.5-0.7
		c-0.1-0.1-0.3-0.1-0.4-0.2c-0.2-0.1-0.3-0.1-0.5-0.1c-0.1-0.1-0.3-0.1-0.4-0.2c-0.2-0.1-0.3-0.1-0.5-0.3c-0.5-0.2-0.6-0.5-0.1-0.9
		c0.1,0,0.1,0,0.1-0.1c0.3-0.1,0.6-0.3,0.8-0.4c0.2-0.1,0.5-0.3,0.8-0.4s0.5-0.4,0.4-0.9v-0.7c0-0.2,0-0.4-0.2-0.6
		c-0.1-0.1-0.1-0.1-0.1-0.2v-0.3c0.1-0.1,0.1-0.2,0.1-0.3c0-0.1,0-0.2,0.1-0.3c0.3-0.1,0.6-0.1,0.8,0.1l0.5,0.5
		c0.6,0.7,1.1,1,1.6,1.1c0.1,0.1,0.2,0.1,0.3,0 M161.9,1808h0.3c0.2-0.1,0.5-0.2,0.7-0.1s0.4,0,0.7,0c0.1,0.3,0.2,0.6,0,0.8
		c-0.1,0.2-0.3,0.5-0.4,0.7c-0.1,0.1-0.2,0.3-0.2,0.5s-0.1,0.3-0.2,0.5c-0.2,0.3-0.2,0.6,0,0.8c0.1,0.1,0.2,0.3,0.3,0.5
		s0.2,0.3,0.3,0.5c0.1,0.1,0.2,0.2,0.2,0.4c0,0.1,0.1,0.2,0.2,0.4c0.1,0.1,0.2,0.3,0.2,0.6c0,0.1-0.1,0.3-0.3,0.4s-0.3,0.1-0.5,0
		c-0.3-0.1-0.6-0.2-0.9-0.2s-0.6-0.1-0.8-0.2s-0.5-0.1-0.9,0c-0.1,0-0.2,0.1-0.4,0.3c-0.2,0.3-0.3,0.5-0.4,0.8
		c-0.1,0.3-0.4,0.5-0.7,0.8c-0.1,0.1-0.2,0.2-0.3,0.1s-0.2-0.1-0.3,0c0-0.1-0.1-0.2-0.2-0.3s-0.1-0.1,0-0.3c0.1-0.1,0.1-0.2,0.1-0.5
		l-0.1-1.3c0-0.4-0.2-0.7-0.5-0.7c-0.1-0.1-0.3-0.1-0.4-0.2c-0.2-0.1-0.3-0.1-0.5-0.1c-0.1-0.1-0.3-0.1-0.4-0.2
		c-0.2-0.1-0.3-0.1-0.5-0.3c-0.5-0.2-0.6-0.5-0.1-0.9c0.1,0,0.1,0,0.1-0.1c0.3-0.1,0.6-0.3,0.8-0.4s0.5-0.3,0.8-0.4s0.5-0.4,0.4-0.9
		v-0.7c0-0.2,0-0.4-0.2-0.6c-0.1-0.1-0.1-0.1-0.1-0.2v-0.3c0.1-0.1,0.1-0.2,0.1-0.3s0-0.2,0.1-0.3c0.3-0.1,0.6-0.1,0.8,0.1l0.5,0.5
		c0.6,0.7,1.1,1,1.6,1.1c0.1,0.1,0.2,0.1,0.3,0 M316.9,1728h0.3c0.2-0.1,0.5-0.2,0.7-0.1s0.4,0,0.7,0c0.1,0.3,0.2,0.6,0,0.8
		c-0.1,0.2-0.3,0.5-0.4,0.7c-0.1,0.1-0.2,0.3-0.2,0.5s-0.1,0.3-0.2,0.5c-0.2,0.3-0.2,0.6,0,0.8c0.1,0.1,0.2,0.3,0.3,0.5
		c0.1,0.2,0.2,0.3,0.3,0.5c0.1,0.1,0.2,0.2,0.2,0.4c0,0.1,0.1,0.2,0.2,0.4c0.1,0.1,0.2,0.3,0.2,0.6c0,0.1-0.1,0.3-0.3,0.4
		s-0.3,0.1-0.5,0c-0.3-0.1-0.6-0.2-0.9-0.2s-0.6-0.1-0.8-0.2s-0.5-0.1-0.9,0c-0.1,0-0.2,0.1-0.4,0.3c-0.2,0.3-0.3,0.5-0.4,0.8
		s-0.4,0.5-0.7,0.8c-0.1,0.1-0.2,0.2-0.3,0.1c-0.1-0.1-0.2-0.1-0.3,0c0-0.1-0.1-0.2-0.2-0.3c-0.1-0.1-0.1-0.1,0-0.3
		c0.1-0.1,0.1-0.2,0.1-0.5l-0.1-1.3c0-0.4-0.2-0.7-0.5-0.7c-0.1-0.1-0.3-0.1-0.4-0.2c-0.2-0.1-0.3-0.1-0.5-0.1
		c-0.1-0.1-0.3-0.1-0.4-0.2c-0.2-0.1-0.3-0.1-0.5-0.3c-0.5-0.2-0.6-0.5-0.1-0.9c0.1,0,0.1,0,0.1-0.1c0.3-0.1,0.6-0.3,0.8-0.4
		c0.2-0.1,0.5-0.3,0.8-0.4s0.5-0.4,0.4-0.9v-0.7c0-0.2,0-0.4-0.2-0.6c-0.1-0.1-0.1-0.1-0.1-0.2v-0.3c0.1-0.1,0.1-0.2,0.1-0.3
		c0-0.1,0-0.2,0.1-0.3c0.3-0.1,0.6-0.1,0.8,0.1l0.5,0.5c0.6,0.7,1.1,1,1.6,1.1c0.1,0.1,0.2,0.1,0.3,0 M84.6,1641.5h0.3
		c0.2-0.1,0.5-0.2,0.7-0.1s0.4,0,0.7,0c0.1,0.3,0.2,0.6,0,0.8c-0.1,0.2-0.3,0.5-0.4,0.7c-0.1,0.1-0.2,0.3-0.2,0.5s-0.1,0.3-0.2,0.5
		c-0.2,0.3-0.2,0.6,0,0.8c0.1,0.1,0.2,0.3,0.3,0.5s0.2,0.3,0.3,0.5c0.1,0.1,0.2,0.2,0.2,0.4c0,0.1,0.1,0.2,0.2,0.4
		c0.1,0.1,0.2,0.3,0.2,0.6c0,0.1-0.1,0.3-0.3,0.4c-0.2,0.1-0.3,0.1-0.5,0c-0.3-0.1-0.6-0.2-0.9-0.2s-0.6-0.1-0.8-0.2s-0.5-0.1-0.9,0
		c-0.1,0-0.2,0.1-0.4,0.3c-0.2,0.3-0.3,0.5-0.4,0.8s-0.4,0.5-0.7,0.8c-0.1,0.1-0.2,0.2-0.3,0.1c-0.1-0.1-0.2-0.1-0.3,0
		c0-0.1-0.1-0.2-0.2-0.3c-0.1-0.1-0.1-0.1,0-0.3c0.1-0.1,0.1-0.2,0.1-0.5l-0.1-1.3c0-0.4-0.2-0.7-0.5-0.7c-0.1-0.1-0.3-0.1-0.4-0.2
		c-0.2-0.1-0.3-0.1-0.5-0.1c-0.1-0.1-0.3-0.1-0.4-0.2c-0.2-0.1-0.3-0.1-0.5-0.3c-0.5-0.2-0.6-0.5-0.1-0.9c0.1,0,0.1,0,0.1-0.1
		c0.3-0.1,0.6-0.3,0.8-0.4s0.5-0.3,0.8-0.4s0.5-0.4,0.4-0.9v-0.7c0-0.2,0-0.4-0.2-0.6c-0.1-0.1-0.1-0.1-0.1-0.2v-0.3
		c0.1-0.1,0.1-0.2,0.1-0.3c0-0.1,0-0.2,0.1-0.3c0.3-0.1,0.6-0.1,0.8,0.1l0.5,0.5c0.6,0.7,1.1,1,1.6,1.1c0.1,0.1,0.2,0.1,0.3,0
		 M549.9,661.1h0.3c0.2-0.1,0.5-0.2,0.7-0.1s0.4,0,0.7,0c0.1,0.3,0.2,0.6,0,0.8c-0.1,0.2-0.3,0.5-0.4,0.7c-0.1,0.1-0.2,0.3-0.2,0.5
		s-0.1,0.3-0.2,0.5c-0.2,0.3-0.2,0.6,0,0.8c0.1,0.1,0.2,0.3,0.3,0.5s0.2,0.3,0.3,0.5c0.1,0.1,0.2,0.2,0.2,0.4c0,0.1,0.1,0.2,0.2,0.4
		c0.1,0.1,0.2,0.3,0.2,0.6c0,0.1-0.1,0.3-0.3,0.4s-0.3,0.1-0.5,0c-0.3-0.1-0.6-0.2-0.9-0.2s-0.6-0.1-0.8-0.2c-0.2-0.1-0.5-0.1-0.9,0
		c-0.1,0-0.2,0.1-0.4,0.3c-0.2,0.3-0.3,0.5-0.4,0.8s-0.4,0.5-0.7,0.8c-0.1,0.1-0.2,0.2-0.3,0.1c-0.1-0.1-0.2-0.1-0.3,0
		c0-0.1-0.1-0.2-0.2-0.3s-0.1-0.1,0-0.3c0.1-0.1,0.1-0.2,0.1-0.5l-0.1-1.3c0-0.4-0.2-0.7-0.5-0.7c-0.1-0.1-0.3-0.1-0.4-0.2
		c-0.2-0.1-0.3-0.1-0.5-0.1c-0.1-0.1-0.3-0.1-0.4-0.2c-0.2-0.1-0.3-0.1-0.5-0.3c-0.5-0.2-0.6-0.5-0.1-0.9c0.1,0,0.1,0,0.1-0.1
		c0.3-0.1,0.6-0.3,0.8-0.4s0.5-0.3,0.8-0.4s0.5-0.4,0.4-0.9v-0.7c0-0.2,0-0.4-0.2-0.6c-0.1-0.1-0.1-0.1-0.1-0.2v-0.3
		c0.1-0.1,0.1-0.2,0.1-0.3s0-0.2,0.1-0.3c0.3-0.1,0.6-0.1,0.8,0.1l0.5,0.5c0.6,0.7,1.1,1,1.6,1.1c0.1,0.1,0.2,0.1,0.3,0 M61.9,723.1
		h0.3c0.2-0.1,0.5-0.2,0.7-0.1s0.4,0,0.7,0c0.1,0.3,0.2,0.6,0,0.8c-0.1,0.2-0.3,0.5-0.4,0.7c-0.1,0.1-0.2,0.3-0.2,0.5
		s-0.1,0.3-0.2,0.5c-0.2,0.3-0.2,0.6,0,0.8c0.1,0.1,0.2,0.3,0.3,0.5s0.2,0.3,0.3,0.5c0.1,0.1,0.2,0.2,0.2,0.4c0,0.1,0.1,0.2,0.2,0.4
		c0.1,0.1,0.2,0.3,0.2,0.6c0,0.1-0.1,0.3-0.3,0.4s-0.3,0.1-0.5,0c-0.3-0.1-0.6-0.2-0.9-0.2s-0.6-0.1-0.8-0.2c-0.2-0.1-0.5-0.1-0.9,0
		c-0.1,0-0.2,0.1-0.4,0.3c-0.2,0.3-0.3,0.5-0.4,0.8s-0.4,0.5-0.7,0.8c-0.1,0.1-0.2,0.2-0.3,0.1c-0.1-0.1-0.2-0.1-0.3,0
		c0-0.1-0.1-0.2-0.2-0.3s-0.1-0.1,0-0.3c0.1-0.1,0.1-0.2,0.1-0.5l-0.1-1.3c0-0.4-0.2-0.7-0.5-0.7c-0.1-0.1-0.3-0.1-0.4-0.2
		c-0.2-0.1-0.3-0.1-0.5-0.1c-0.1-0.1-0.3-0.1-0.4-0.2c-0.2-0.1-0.3-0.1-0.5-0.3c-0.5-0.2-0.6-0.5-0.1-0.9c0.1,0,0.1,0,0.1-0.1
		c0.3-0.1,0.6-0.3,0.8-0.4s0.5-0.3,0.8-0.4s0.5-0.4,0.4-0.9v-0.7c0-0.2,0-0.4-0.2-0.6c-0.1-0.1-0.1-0.1-0.1-0.2v-0.3
		c0.1-0.1,0.1-0.2,0.1-0.3s0-0.2,0.1-0.3c0.3-0.1,0.6-0.1,0.8,0.1l0.5,0.5c0.6,0.7,1.1,1,1.6,1.1c0.1,0.1,0.2,0.1,0.3,0"/>
	<path class="st0" d="M389.2,896.8h0.2c0.2-0.1,0.3-0.1,0.4-0.1h0.4c0.1,0.2,0.1,0.4,0,0.5s-0.2,0.3-0.3,0.5
		c-0.1,0.1-0.1,0.2-0.1,0.3s-0.1,0.2-0.1,0.3c-0.2,0.2-0.1,0.4,0,0.6c0.1,0.1,0.2,0.2,0.2,0.3s0.1,0.2,0.2,0.3s0.1,0.2,0.1,0.2
		c0,0.1,0,0.2,0.1,0.2c0.1,0.1,0.1,0.2,0.1,0.4c0,0.1-0.1,0.2-0.2,0.3s-0.2,0.1-0.3,0c-0.2-0.1-0.4-0.1-0.6-0.1s-0.4-0.1-0.5-0.1
		c-0.1-0.1-0.3-0.1-0.6,0c-0.1,0-0.2,0.1-0.2,0.2c-0.1,0.2-0.2,0.3-0.3,0.5s-0.2,0.3-0.5,0.5c-0.1,0.1-0.1,0.1-0.2,0
		c0-0.1-0.1-0.1-0.2,0c0-0.1,0-0.1-0.1-0.2c-0.1,0-0.1-0.1,0-0.2c0,0,0.1-0.1,0-0.3V900c0-0.3-0.1-0.4-0.3-0.5
		c-0.1,0-0.2-0.1-0.3-0.1c-0.1-0.1-0.2-0.1-0.3-0.1s-0.2-0.1-0.3-0.1s-0.2-0.1-0.3-0.2c-0.3-0.1-0.4-0.3-0.1-0.6c0,0,0.1,0,0.1-0.1
		c0.2-0.1,0.4-0.2,0.5-0.3c0.2-0.1,0.3-0.2,0.5-0.3s0.3-0.3,0.3-0.6v-0.4c0-0.1,0-0.3-0.1-0.4c0,0-0.1-0.1,0-0.2v-0.2
		c0-0.1,0.1-0.1,0.1-0.2c0,0,0-0.1,0.1-0.2c0.2-0.1,0.4-0.1,0.5,0s0.3,0.2,0.4,0.4c0.4,0.4,0.7,0.7,1.1,0.8h0.2 M594.4,1827.2h0.2
		c0.2-0.1,0.3-0.1,0.4-0.1h0.4c0.1,0.2,0.1,0.4,0,0.5s-0.2,0.3-0.3,0.5c-0.1,0.1-0.1,0.2-0.1,0.3s-0.1,0.2-0.1,0.3
		c-0.2,0.2-0.1,0.4,0,0.6c0.1,0.1,0.2,0.2,0.2,0.3s0.1,0.2,0.2,0.3s0.1,0.2,0.1,0.2c0,0.1,0,0.2,0.1,0.2c0.1,0.1,0.1,0.2,0.1,0.4
		c0,0.1-0.1,0.2-0.2,0.3c-0.1,0.1-0.2,0.1-0.3,0c-0.2-0.1-0.4-0.1-0.6-0.1s-0.4-0.1-0.5-0.1c-0.1-0.1-0.3-0.1-0.6,0
		c-0.1,0-0.2,0.1-0.2,0.2c-0.1,0.2-0.2,0.3-0.3,0.5s-0.2,0.3-0.5,0.5c-0.1,0.1-0.1,0.1-0.2,0c0-0.1-0.1-0.1-0.2,0
		c0-0.1,0-0.1-0.1-0.2c-0.1,0-0.1-0.1,0-0.2c0,0,0.1-0.1,0-0.3v-0.9c0-0.3-0.1-0.4-0.3-0.5c-0.1,0-0.2-0.1-0.3-0.1
		c-0.1-0.1-0.2-0.1-0.3-0.1s-0.2-0.1-0.3-0.1s-0.2-0.1-0.3-0.2c-0.3-0.1-0.4-0.3-0.1-0.6c0,0,0.1,0,0.1-0.1c0.2-0.1,0.4-0.2,0.5-0.3
		c0.2-0.1,0.3-0.2,0.5-0.3c0.2-0.1,0.3-0.3,0.3-0.6v-0.4c0-0.1,0-0.3-0.1-0.4c0,0-0.1-0.1,0-0.2v-0.2c0-0.1,0.1-0.1,0.1-0.2
		c0,0,0-0.1,0.1-0.2c0.2-0.1,0.4-0.1,0.5,0s0.3,0.2,0.4,0.4c0.4,0.4,0.7,0.7,1.1,0.8h0.2 M389.2,1862.7h0.2c0.2-0.1,0.3-0.1,0.4-0.1
		h0.4c0.1,0.2,0.1,0.4,0,0.5s-0.2,0.3-0.3,0.5c-0.1,0.1-0.1,0.2-0.1,0.3s-0.1,0.2-0.1,0.3c-0.2,0.2-0.1,0.4,0,0.6
		c0.1,0.1,0.2,0.2,0.2,0.3s0.1,0.2,0.2,0.3s0.1,0.2,0.1,0.2c0,0.1,0,0.2,0.1,0.2c0.1,0.1,0.1,0.2,0.1,0.4c0,0.1-0.1,0.2-0.2,0.3
		c-0.1,0.1-0.2,0.1-0.3,0c-0.2-0.1-0.4-0.1-0.6-0.1s-0.4-0.1-0.5-0.1c-0.1-0.1-0.3-0.1-0.6,0c-0.1,0-0.2,0.1-0.2,0.2
		c-0.1,0.2-0.2,0.3-0.3,0.5c-0.1,0.2-0.2,0.3-0.5,0.5c-0.1,0.1-0.1,0.1-0.2,0c0-0.1-0.1-0.1-0.2,0c0-0.1,0-0.1-0.1-0.2
		c-0.1,0-0.1-0.1,0-0.2c0,0,0.1-0.1,0-0.3v-0.9c0-0.3-0.1-0.4-0.3-0.5c-0.1,0-0.2-0.1-0.3-0.1c-0.1-0.1-0.2-0.1-0.3-0.1
		s-0.2-0.1-0.3-0.1s-0.2-0.1-0.3-0.2c-0.3-0.1-0.4-0.3-0.1-0.6c0,0,0.1,0,0.1-0.1c0.2-0.1,0.4-0.2,0.5-0.3c0.2-0.1,0.3-0.2,0.5-0.3
		c0.2-0.1,0.3-0.3,0.3-0.6v-0.4c0-0.1,0-0.3-0.1-0.4c0,0-0.1-0.1,0-0.2v-0.2c0-0.1,0.1-0.1,0.1-0.2c0,0,0-0.1,0.1-0.2
		c0.2-0.1,0.4-0.1,0.5,0s0.3,0.2,0.4,0.4c0.4,0.4,0.7,0.7,1.1,0.8h0.2 M535.2,1027.8h0.2c0.2-0.1,0.3-0.1,0.4-0.1h0.4
		c0.1,0.2,0.1,0.4,0,0.5s-0.2,0.3-0.3,0.5c-0.1,0.1-0.1,0.2-0.1,0.3s-0.1,0.2-0.1,0.3c-0.2,0.2-0.1,0.4,0,0.6
		c0.1,0.1,0.2,0.2,0.2,0.3s0.1,0.2,0.2,0.3s0.1,0.2,0.1,0.2c0,0.1,0,0.2,0.1,0.2c0.1,0.1,0.1,0.2,0.1,0.4c0,0.1-0.1,0.2-0.2,0.3
		c-0.1,0.1-0.2,0.1-0.3,0c-0.2-0.1-0.4-0.1-0.6-0.1s-0.4-0.1-0.5-0.1c-0.1-0.1-0.3-0.1-0.6,0c-0.1,0-0.2,0.1-0.2,0.2
		c-0.1,0.2-0.2,0.3-0.3,0.5s-0.2,0.3-0.5,0.5c-0.1,0.1-0.1,0.1-0.2,0c0-0.1-0.1-0.1-0.2,0c0-0.1,0-0.1-0.1-0.2c-0.1,0-0.1-0.1,0-0.2
		c0,0,0.1-0.1,0-0.3v-0.9c0-0.3-0.1-0.4-0.3-0.5c-0.1,0-0.2-0.1-0.3-0.1c-0.1-0.1-0.2-0.1-0.3-0.1s-0.2-0.1-0.3-0.1
		s-0.2-0.1-0.3-0.2c-0.3-0.1-0.4-0.3-0.1-0.6c0,0,0.1,0,0.1-0.1c0.2-0.1,0.4-0.2,0.5-0.3c0.2-0.1,0.3-0.2,0.5-0.3s0.3-0.3,0.3-0.6
		v-0.4c0-0.1,0-0.3-0.1-0.4c0,0-0.1-0.1,0-0.2v-0.2c0-0.1,0.1-0.1,0.1-0.2c0,0,0-0.1,0.1-0.2c0.2-0.1,0.4-0.1,0.5,0s0.3,0.2,0.4,0.4
		c0.4,0.4,0.7,0.7,1.1,0.8h0.2 M273.2,1031.8h0.2c0.2-0.1,0.3-0.1,0.4-0.1h0.4c0.1,0.2,0.1,0.4,0,0.5s-0.2,0.3-0.3,0.5
		c-0.1,0.1-0.1,0.2-0.1,0.3s-0.1,0.2-0.1,0.3c-0.2,0.2-0.1,0.4,0,0.6c0.1,0.1,0.2,0.2,0.2,0.3s0.1,0.2,0.2,0.3s0.1,0.2,0.1,0.2
		c0,0.1,0,0.2,0.1,0.2c0.1,0.1,0.1,0.2,0.1,0.4c0,0.1-0.1,0.2-0.2,0.3c-0.1,0.1-0.2,0.1-0.3,0c-0.2-0.1-0.4-0.1-0.6-0.1
		s-0.4-0.1-0.5-0.1c-0.1-0.1-0.3-0.1-0.6,0c-0.1,0-0.2,0.1-0.2,0.2c-0.1,0.2-0.2,0.3-0.3,0.5s-0.2,0.3-0.5,0.5
		c-0.1,0.1-0.1,0.1-0.2,0c0-0.1-0.1-0.1-0.2,0c0-0.1,0-0.1-0.1-0.2c-0.1,0-0.1-0.1,0-0.2c0,0,0.1-0.1,0-0.3v-0.9
		c0-0.3-0.1-0.4-0.3-0.5c-0.1,0-0.2-0.1-0.3-0.1c-0.1-0.1-0.2-0.1-0.3-0.1s-0.2-0.1-0.3-0.1s-0.2-0.1-0.3-0.2
		c-0.3-0.1-0.4-0.3-0.1-0.6c0,0,0.1,0,0.1-0.1c0.2-0.1,0.4-0.2,0.5-0.3c0.2-0.1,0.3-0.2,0.5-0.3c0.2-0.1,0.3-0.3,0.3-0.6v-0.4
		c0-0.1,0-0.3-0.1-0.4c0,0-0.1-0.1,0-0.2v-0.2c0-0.1,0.1-0.1,0.1-0.2c0,0,0-0.1,0.1-0.2c0.2-0.1,0.4-0.1,0.5,0s0.3,0.2,0.4,0.4
		c0.4,0.4,0.7,0.7,1.1,0.8h0.2"/>
	<path class="st4" d="M200,985.8h0.3c0.2-0.1,0.5-0.2,0.7-0.1s0.4,0,0.7,0c0.1,0.3,0.2,0.6,0,0.8c-0.1,0.2-0.3,0.5-0.4,0.7
		c-0.1,0.1-0.2,0.3-0.2,0.5s-0.1,0.3-0.2,0.5c-0.2,0.3-0.2,0.6,0,0.8c0.1,0.1,0.2,0.3,0.3,0.5s0.2,0.3,0.3,0.5
		c0.1,0.1,0.2,0.2,0.2,0.4c0,0.1,0.1,0.2,0.2,0.4c0.1,0.1,0.2,0.3,0.2,0.6c0,0.1-0.1,0.3-0.3,0.4s-0.3,0.1-0.5,0
		c-0.3-0.1-0.6-0.2-0.9-0.2s-0.6-0.1-0.8-0.2s-0.5-0.1-0.9,0c-0.1,0-0.2,0.1-0.4,0.3c-0.2,0.3-0.3,0.5-0.4,0.8s-0.4,0.5-0.7,0.8
		c-0.1,0.1-0.2,0.2-0.3,0.1c-0.1-0.1-0.2-0.1-0.3,0c0-0.1-0.1-0.2-0.2-0.3s-0.1-0.1,0-0.3c0.1-0.1,0.1-0.2,0.1-0.5l-0.1-1.3
		c0-0.4-0.2-0.7-0.5-0.7c-0.1-0.1-0.3-0.1-0.4-0.2c-0.2-0.1-0.3-0.1-0.5-0.1c-0.1-0.1-0.3-0.1-0.4-0.2c-0.2-0.1-0.3-0.1-0.5-0.3
		c-0.5-0.2-0.6-0.5-0.1-0.9c0.1,0,0.1,0,0.1-0.1c0.3-0.1,0.6-0.3,0.8-0.4s0.5-0.3,0.8-0.4s0.5-0.4,0.4-0.9v-0.7c0-0.2,0-0.4-0.2-0.6
		c-0.1-0.1-0.1-0.1-0.1-0.2V985c0.1-0.1,0.1-0.2,0.1-0.3s0-0.2,0.1-0.3c0.3-0.1,0.6-0.1,0.8,0.1l0.5,0.5c0.6,0.7,1.1,1,1.6,1.1
		c0.1,0.1,0.2,0.1,0.3,0 M435,1066.8h0.3c0.2-0.1,0.5-0.2,0.7-0.1s0.4,0,0.7,0c0.1,0.3,0.2,0.6,0,0.8c-0.1,0.2-0.3,0.5-0.4,0.7
		c-0.1,0.1-0.2,0.3-0.2,0.5s-0.1,0.3-0.2,0.5c-0.2,0.3-0.2,0.6,0,0.8c0.1,0.1,0.2,0.3,0.3,0.5s0.2,0.3,0.3,0.5
		c0.1,0.1,0.2,0.2,0.2,0.4c0,0.1,0.1,0.2,0.2,0.4c0.1,0.1,0.2,0.3,0.2,0.6c0,0.1-0.1,0.3-0.3,0.4s-0.3,0.1-0.5,0
		c-0.3-0.1-0.6-0.2-0.9-0.2s-0.6-0.1-0.8-0.2s-0.5-0.1-0.9,0c-0.1,0-0.2,0.1-0.4,0.3c-0.2,0.3-0.3,0.5-0.4,0.8s-0.4,0.5-0.7,0.8
		c-0.1,0.1-0.2,0.2-0.3,0.1c-0.1-0.1-0.2-0.1-0.3,0c0-0.1-0.1-0.2-0.2-0.3s-0.1-0.1,0-0.3c0.1-0.1,0.1-0.2,0.1-0.5l-0.1-1.3
		c0-0.4-0.2-0.7-0.5-0.7c-0.1-0.1-0.3-0.1-0.4-0.2c-0.2-0.1-0.3-0.1-0.5-0.1c-0.1-0.1-0.3-0.1-0.4-0.2c-0.2-0.1-0.3-0.1-0.5-0.3
		c-0.5-0.2-0.6-0.5-0.1-0.9c0.1,0,0.1,0,0.1-0.1c0.3-0.1,0.6-0.3,0.8-0.4s0.5-0.3,0.8-0.4s0.5-0.4,0.4-0.9v-0.7c0-0.2,0-0.4-0.2-0.6
		c-0.1-0.1-0.1-0.1-0.1-0.2v-0.3c0.1-0.1,0.1-0.2,0.1-0.3s0-0.2,0.1-0.3c0.3-0.1,0.6-0.1,0.8,0.1l0.5,0.5c0.6,0.7,1.1,1,1.6,1.1
		c0.1,0.1,0.2,0.1,0.3,0 M213,1147.1h0.3c0.2-0.1,0.5-0.2,0.7-0.1c0.2,0.1,0.4,0,0.7,0c0.1,0.3,0.2,0.6,0,0.8
		c-0.1,0.2-0.3,0.5-0.4,0.7c-0.1,0.1-0.2,0.3-0.2,0.5c0,0.2-0.1,0.3-0.2,0.5c-0.2,0.3-0.2,0.6,0,0.8c0.1,0.1,0.2,0.3,0.3,0.5
		c0.1,0.2,0.2,0.3,0.3,0.5c0.1,0.1,0.2,0.2,0.2,0.4c0,0.1,0.1,0.2,0.2,0.4c0.1,0.1,0.2,0.3,0.2,0.6c0,0.1-0.1,0.3-0.3,0.4
		c-0.2,0.1-0.3,0.1-0.5,0c-0.3-0.1-0.6-0.2-0.9-0.2s-0.6-0.1-0.8-0.2c-0.2-0.1-0.5-0.1-0.9,0c-0.1,0-0.2,0.1-0.4,0.3
		c-0.2,0.3-0.3,0.5-0.4,0.8c-0.1,0.3-0.4,0.5-0.7,0.8c-0.1,0.1-0.2,0.2-0.3,0.1c-0.1-0.1-0.2-0.1-0.3,0c0-0.1-0.1-0.2-0.2-0.3
		s-0.1-0.1,0-0.3c0.1-0.1,0.1-0.2,0.1-0.5l-0.1-1.3c0-0.4-0.2-0.7-0.5-0.7c-0.1-0.1-0.3-0.1-0.4-0.2c-0.2-0.1-0.3-0.1-0.5-0.1
		c-0.1-0.1-0.3-0.1-0.4-0.2c-0.2-0.1-0.3-0.1-0.5-0.3c-0.5-0.2-0.6-0.5-0.1-0.9c0.1,0,0.1,0,0.1-0.1c0.3-0.1,0.6-0.3,0.8-0.4
		c0.2-0.1,0.5-0.3,0.8-0.4c0.3-0.1,0.5-0.4,0.4-0.9v-0.7c0-0.2,0-0.4-0.2-0.6c-0.1-0.1-0.1-0.1-0.1-0.2v-0.3
		c0.1-0.1,0.1-0.2,0.1-0.3s0-0.2,0.1-0.3c0.3-0.1,0.6-0.1,0.8,0.1l0.5,0.5c0.6,0.7,1.1,1,1.6,1.1c0.1,0.1,0.2,0.1,0.3,0
		 M490.4,1262.1h0.2c0.2-0.1,0.3-0.1,0.4-0.1h0.4c0.1,0.2,0.1,0.4,0,0.5s-0.2,0.3-0.3,0.5c-0.1,0.1-0.1,0.2-0.1,0.3
		s-0.1,0.2-0.1,0.3c-0.2,0.2-0.1,0.4,0,0.6c0.1,0.1,0.2,0.2,0.2,0.3s0.1,0.2,0.2,0.3s0.1,0.2,0.1,0.2c0,0.1,0,0.2,0.1,0.2
		c0.1,0.1,0.1,0.2,0.1,0.4c0,0.1-0.1,0.2-0.2,0.3c-0.1,0.1-0.2,0.1-0.3,0c-0.2-0.1-0.4-0.1-0.6-0.1s-0.4-0.1-0.5-0.1
		c-0.1-0.1-0.3-0.1-0.6,0c-0.1,0-0.2,0.1-0.2,0.2c-0.1,0.2-0.2,0.3-0.3,0.5c-0.1,0.2-0.2,0.3-0.5,0.5c-0.1,0.1-0.1,0.1-0.2,0
		c0-0.1-0.1-0.1-0.2,0c0-0.1,0-0.1-0.1-0.2c-0.1,0-0.1-0.1,0-0.2c0,0,0.1-0.1,0-0.3v-0.9c0-0.3-0.1-0.4-0.3-0.5
		c-0.1,0-0.2-0.1-0.3-0.1c-0.1-0.1-0.2-0.1-0.3-0.1s-0.2-0.1-0.3-0.1s-0.2-0.1-0.3-0.2c-0.3-0.1-0.4-0.3-0.1-0.6c0,0,0.1,0,0.1-0.1
		c0.2-0.1,0.4-0.2,0.5-0.3c0.2-0.1,0.3-0.2,0.5-0.3c0.2-0.1,0.3-0.3,0.3-0.6v-0.4c0-0.1,0-0.3-0.1-0.4c0,0-0.1-0.1,0-0.2v-0.2
		c0-0.1,0.1-0.1,0.1-0.2c0,0,0-0.1,0.1-0.2c0.2-0.1,0.4-0.1,0.5,0s0.3,0.2,0.4,0.4c0.4,0.4,0.7,0.7,1.1,0.8h0.2 M117.4,1208.1h0.2
		c0.2-0.1,0.3-0.1,0.4-0.1h0.4c0.1,0.2,0.1,0.4,0,0.5s-0.2,0.3-0.3,0.5c-0.1,0.1-0.1,0.2-0.1,0.3s-0.1,0.2-0.1,0.3
		c-0.2,0.2-0.1,0.4,0,0.6c0.1,0.1,0.2,0.2,0.2,0.3s0.1,0.2,0.2,0.3s0.1,0.2,0.1,0.2c0,0.1,0,0.2,0.1,0.2c0.1,0.1,0.1,0.2,0.1,0.4
		c0,0.1-0.1,0.2-0.2,0.3c-0.1,0.1-0.2,0.1-0.3,0c-0.2-0.1-0.4-0.1-0.6-0.1s-0.4-0.1-0.5-0.1c-0.1-0.1-0.3-0.1-0.6,0
		c-0.1,0-0.2,0.1-0.2,0.2c-0.1,0.2-0.2,0.3-0.3,0.5c-0.1,0.2-0.2,0.3-0.5,0.5c-0.1,0.1-0.1,0.1-0.2,0c0-0.1-0.1-0.1-0.2,0
		c0-0.1,0-0.1-0.1-0.2c-0.1,0-0.1-0.1,0-0.2c0,0,0.1-0.1,0-0.3v-0.9c0-0.3-0.1-0.4-0.3-0.5c-0.1,0-0.2-0.1-0.3-0.1
		c-0.1-0.1-0.2-0.1-0.3-0.1s-0.2-0.1-0.3-0.1s-0.2-0.1-0.3-0.2c-0.3-0.1-0.4-0.3-0.1-0.6c0,0,0.1,0,0.1-0.1c0.2-0.1,0.4-0.2,0.5-0.3
		c0.2-0.1,0.3-0.2,0.5-0.3c0.2-0.1,0.3-0.3,0.3-0.6v-0.4c0-0.1,0-0.3-0.1-0.4c0,0-0.1-0.1,0-0.2v-0.2c0-0.1,0.1-0.1,0.1-0.2
		c0,0,0-0.1,0.1-0.2c0.2-0.1,0.4-0.1,0.5,0s0.3,0.2,0.4,0.4c0.4,0.4,0.7,0.7,1.1,0.8h0.2 M237.4,1329.1h0.2c0.2-0.1,0.3-0.1,0.4-0.1
		h0.4c0.1,0.2,0.1,0.4,0,0.5s-0.2,0.3-0.3,0.5c-0.1,0.1-0.1,0.2-0.1,0.3s-0.1,0.2-0.1,0.3c-0.2,0.2-0.1,0.4,0,0.6
		c0.1,0.1,0.2,0.2,0.2,0.3s0.1,0.2,0.2,0.3s0.1,0.2,0.1,0.2c0,0.1,0,0.2,0.1,0.2c0.1,0.1,0.1,0.2,0.1,0.4c0,0.1-0.1,0.2-0.2,0.3
		c-0.1,0.1-0.2,0.1-0.3,0c-0.2-0.1-0.4-0.1-0.6-0.1s-0.4-0.1-0.5-0.1c-0.1-0.1-0.3-0.1-0.6,0c-0.1,0-0.2,0.1-0.2,0.2
		c-0.1,0.2-0.2,0.3-0.3,0.5s-0.2,0.3-0.5,0.5c-0.1,0.1-0.1,0.1-0.2,0c0-0.1-0.1-0.1-0.2,0c0-0.1,0-0.1-0.1-0.2c-0.1,0-0.1-0.1,0-0.2
		c0,0,0.1-0.1,0-0.3v-0.9c0-0.3-0.1-0.4-0.3-0.5c-0.1,0-0.2-0.1-0.3-0.1c-0.1-0.1-0.2-0.1-0.3-0.1s-0.2-0.1-0.3-0.1
		s-0.2-0.1-0.3-0.2c-0.3-0.1-0.4-0.3-0.1-0.6c0,0,0.1,0,0.1-0.1c0.2-0.1,0.4-0.2,0.5-0.3c0.2-0.1,0.3-0.2,0.5-0.3
		c0.2-0.1,0.3-0.3,0.3-0.6v-0.4c0-0.1,0-0.3-0.1-0.4c0,0-0.1-0.1,0-0.2v-0.2c0-0.1,0.1-0.1,0.1-0.2c0,0,0-0.1,0.1-0.2
		c0.2-0.1,0.4-0.1,0.5,0s0.3,0.2,0.4,0.4c0.4,0.4,0.7,0.7,1.1,0.8h0.2 M404.4,1301.1h0.2c0.2-0.1,0.3-0.1,0.4-0.1h0.4
		c0.1,0.2,0.1,0.4,0,0.5s-0.2,0.3-0.3,0.5c-0.1,0.1-0.1,0.2-0.1,0.3s-0.1,0.2-0.1,0.3c-0.2,0.2-0.1,0.4,0,0.6
		c0.1,0.1,0.2,0.2,0.2,0.3s0.1,0.2,0.2,0.3s0.1,0.2,0.1,0.2c0,0.1,0,0.2,0.1,0.2c0.1,0.1,0.1,0.2,0.1,0.4c0,0.1-0.1,0.2-0.2,0.3
		c-0.1,0.1-0.2,0.1-0.3,0c-0.2-0.1-0.4-0.1-0.6-0.1s-0.4-0.1-0.5-0.1c-0.1-0.1-0.3-0.1-0.6,0c-0.1,0-0.2,0.1-0.2,0.2
		c-0.1,0.2-0.2,0.3-0.3,0.5c-0.1,0.2-0.2,0.3-0.5,0.5c-0.1,0.1-0.1,0.1-0.2,0c0-0.1-0.1-0.1-0.2,0c0-0.1,0-0.1-0.1-0.2
		c-0.1,0-0.1-0.1,0-0.2c0,0,0.1-0.1,0-0.3v-0.9c0-0.3-0.1-0.4-0.3-0.5c-0.1,0-0.2-0.1-0.3-0.1c-0.1-0.1-0.2-0.1-0.3-0.1
		s-0.2-0.1-0.3-0.1s-0.2-0.1-0.3-0.2c-0.3-0.1-0.4-0.3-0.1-0.6c0,0,0.1,0,0.1-0.1c0.2-0.1,0.4-0.2,0.5-0.3c0.2-0.1,0.3-0.2,0.5-0.3
		c0.2-0.1,0.3-0.3,0.3-0.6v-0.4c0-0.1,0-0.3-0.1-0.4c0,0-0.1-0.1,0-0.2v-0.2c0-0.1,0.1-0.1,0.1-0.2c0,0,0-0.1,0.1-0.2
		c0.2-0.1,0.4-0.1,0.5,0s0.3,0.2,0.4,0.4c0.4,0.4,0.7,0.7,1.1,0.8h0.2 M67.4,1510.1h0.2c0.2-0.1,0.3-0.1,0.4-0.1h0.4
		c0.1,0.2,0.1,0.4,0,0.5s-0.2,0.3-0.3,0.5c-0.1,0.1-0.1,0.2-0.1,0.3s-0.1,0.2-0.1,0.3c-0.2,0.2-0.1,0.4,0,0.6
		c0.1,0.1,0.2,0.2,0.2,0.3s0.1,0.2,0.2,0.3s0.1,0.2,0.1,0.2c0,0.1,0,0.2,0.1,0.2c0.1,0.1,0.1,0.2,0.1,0.4c0,0.1-0.1,0.2-0.2,0.3
		c-0.1,0.1-0.2,0.1-0.3,0c-0.2-0.1-0.4-0.1-0.6-0.1s-0.4-0.1-0.5-0.1c-0.1-0.1-0.3-0.1-0.6,0c-0.1,0-0.2,0.1-0.2,0.2
		c-0.1,0.2-0.2,0.3-0.3,0.5c-0.1,0.2-0.2,0.3-0.5,0.5c-0.1,0.1-0.1,0.1-0.2,0c0-0.1-0.1-0.1-0.2,0c0-0.1,0-0.1-0.1-0.2
		c-0.1,0-0.1-0.1,0-0.2c0,0,0.1-0.1,0-0.3v-0.9c0-0.3-0.1-0.4-0.3-0.5c-0.1,0-0.2-0.1-0.3-0.1c-0.1-0.1-0.2-0.1-0.3-0.1
		s-0.2-0.1-0.3-0.1s-0.2-0.1-0.3-0.2c-0.3-0.1-0.4-0.3-0.1-0.6c0,0,0.1,0,0.1-0.1c0.2-0.1,0.4-0.2,0.5-0.3c0.2-0.1,0.3-0.2,0.5-0.3
		c0.2-0.1,0.3-0.3,0.3-0.6v-0.4c0-0.1,0-0.3-0.1-0.4c0,0-0.1-0.1,0-0.2v-0.2c0-0.1,0.1-0.1,0.1-0.2c0,0,0-0.1,0.1-0.2
		c0.2-0.1,0.4-0.1,0.5,0s0.3,0.2,0.4,0.4c0.4,0.4,0.7,0.7,1.1,0.8H67 M594.4,1537.1h0.2c0.2-0.1,0.3-0.1,0.4-0.1h0.4
		c0.1,0.2,0.1,0.4,0,0.5s-0.2,0.3-0.3,0.5c-0.1,0.1-0.1,0.2-0.1,0.3s-0.1,0.2-0.1,0.3c-0.2,0.2-0.1,0.4,0,0.6
		c0.1,0.1,0.2,0.2,0.2,0.3s0.1,0.2,0.2,0.3s0.1,0.2,0.1,0.2c0,0.1,0,0.2,0.1,0.2c0.1,0.1,0.1,0.2,0.1,0.4c0,0.1-0.1,0.2-0.2,0.3
		c-0.1,0.1-0.2,0.1-0.3,0c-0.2-0.1-0.4-0.1-0.6-0.1s-0.4-0.1-0.5-0.1c-0.1-0.1-0.3-0.1-0.6,0c-0.1,0-0.2,0.1-0.2,0.2
		c-0.1,0.2-0.2,0.3-0.3,0.5s-0.2,0.3-0.5,0.5c-0.1,0.1-0.1,0.1-0.2,0c0-0.1-0.1-0.1-0.2,0c0-0.1,0-0.1-0.1-0.2c-0.1,0-0.1-0.1,0-0.2
		c0,0,0.1-0.1,0-0.3v-0.9c0-0.3-0.1-0.4-0.3-0.5c-0.1,0-0.2-0.1-0.3-0.1c-0.1-0.1-0.2-0.1-0.3-0.1s-0.2-0.1-0.3-0.1
		s-0.2-0.1-0.3-0.2c-0.3-0.1-0.4-0.3-0.1-0.6c0,0,0.1,0,0.1-0.1c0.2-0.1,0.4-0.2,0.5-0.3c0.2-0.1,0.3-0.2,0.5-0.3
		c0.2-0.1,0.3-0.3,0.3-0.6v-0.4c0-0.1,0-0.3-0.1-0.4c0,0-0.1-0.1,0-0.2v-0.2c0-0.1,0.1-0.1,0.1-0.2c0,0,0-0.1,0.1-0.2
		c0.2-0.1,0.4-0.1,0.5,0s0.3,0.2,0.4,0.4c0.4,0.4,0.7,0.7,1.1,0.8h0.2 M423.4,1409.1h0.2c0.2-0.1,0.3-0.1,0.4-0.1h0.4
		c0.1,0.2,0.1,0.4,0,0.5s-0.2,0.3-0.3,0.5c-0.1,0.1-0.1,0.2-0.1,0.3s-0.1,0.2-0.1,0.3c-0.2,0.2-0.1,0.4,0,0.6
		c0.1,0.1,0.2,0.2,0.2,0.3s0.1,0.2,0.2,0.3s0.1,0.2,0.1,0.2c0,0.1,0,0.2,0.1,0.2c0.1,0.1,0.1,0.2,0.1,0.4c0,0.1-0.1,0.2-0.2,0.3
		c-0.1,0.1-0.2,0.1-0.3,0c-0.2-0.1-0.4-0.1-0.6-0.1s-0.4-0.1-0.5-0.1c-0.1-0.1-0.3-0.1-0.6,0c-0.1,0-0.2,0.1-0.2,0.2
		c-0.1,0.2-0.2,0.3-0.3,0.5c-0.1,0.2-0.2,0.3-0.5,0.5c-0.1,0.1-0.1,0.1-0.2,0c0-0.1-0.1-0.1-0.2,0c0-0.1,0-0.1-0.1-0.2
		c-0.1,0-0.1-0.1,0-0.2c0,0,0.1-0.1,0-0.3v-0.9c0-0.3-0.1-0.4-0.3-0.5c-0.1,0-0.2-0.1-0.3-0.1c-0.1-0.1-0.2-0.1-0.3-0.1
		s-0.2-0.1-0.3-0.1s-0.2-0.1-0.3-0.2c-0.3-0.1-0.4-0.3-0.1-0.6c0,0,0.1,0,0.1-0.1c0.2-0.1,0.4-0.2,0.5-0.3c0.2-0.1,0.3-0.2,0.5-0.3
		c0.2-0.1,0.3-0.3,0.3-0.6v-0.4c0-0.1,0-0.3-0.1-0.4c0,0-0.1-0.1,0-0.2v-0.2c0-0.1,0.1-0.1,0.1-0.2c0,0,0-0.1,0.1-0.2
		c0.2-0.1,0.4-0.1,0.5,0s0.3,0.2,0.4,0.4c0.4,0.4,0.7,0.7,1.1,0.8h0.2 M154.9,1319.9h0.3c0.2-0.1,0.5-0.2,0.7-0.1s0.4,0,0.7,0
		c0.1,0.3,0.2,0.6,0,0.8c-0.1,0.2-0.3,0.5-0.4,0.7c-0.1,0.1-0.2,0.3-0.2,0.5s-0.1,0.3-0.2,0.5c-0.2,0.3-0.2,0.6,0,0.8
		c0.1,0.1,0.2,0.3,0.3,0.5s0.2,0.3,0.3,0.5c0.1,0.1,0.2,0.2,0.2,0.4c0,0.1,0.1,0.2,0.2,0.4c0.1,0.1,0.2,0.3,0.2,0.6
		c0,0.1-0.1,0.3-0.3,0.4s-0.3,0.1-0.5,0c-0.3-0.1-0.6-0.2-0.9-0.2s-0.6-0.1-0.8-0.2s-0.5-0.1-0.9,0c-0.1,0-0.2,0.1-0.4,0.3
		c-0.2,0.3-0.3,0.5-0.4,0.8c-0.1,0.3-0.4,0.5-0.7,0.8c-0.1,0.1-0.2,0.2-0.3,0.1s-0.2-0.1-0.3,0c0-0.1-0.1-0.2-0.2-0.3
		s-0.1-0.1,0-0.3c0.1-0.1,0.1-0.2,0.1-0.5l-0.1-1.3c0-0.4-0.2-0.7-0.5-0.7c-0.1-0.1-0.3-0.1-0.4-0.2c-0.2-0.1-0.3-0.1-0.5-0.1
		c-0.1-0.1-0.3-0.1-0.4-0.2c-0.2-0.1-0.3-0.1-0.5-0.3c-0.5-0.2-0.6-0.5-0.1-0.9c0.1,0,0.1,0,0.1-0.1c0.3-0.1,0.6-0.3,0.8-0.4
		s0.5-0.3,0.8-0.4s0.5-0.4,0.4-0.9v-0.7c0-0.2,0-0.4-0.2-0.6c-0.1-0.1-0.1-0.1-0.1-0.2v-0.3c0.1-0.1,0.1-0.2,0.1-0.3s0-0.2,0.1-0.3
		c0.3-0.1,0.6-0.1,0.8,0.1l0.5,0.5c0.6,0.7,1.1,1,1.6,1.1c0.1,0.1,0.2,0.1,0.3,0 M549.9,1336.9h0.3c0.2-0.1,0.5-0.2,0.7-0.1
		s0.4,0,0.7,0c0.1,0.3,0.2,0.6,0,0.8c-0.1,0.2-0.3,0.5-0.4,0.7c-0.1,0.1-0.2,0.3-0.2,0.5s-0.1,0.3-0.2,0.5c-0.2,0.3-0.2,0.6,0,0.8
		c0.1,0.1,0.2,0.3,0.3,0.5s0.2,0.3,0.3,0.5c0.1,0.1,0.2,0.2,0.2,0.4c0,0.1,0.1,0.2,0.2,0.4c0.1,0.1,0.2,0.3,0.2,0.6
		c0,0.1-0.1,0.3-0.3,0.4s-0.3,0.1-0.5,0c-0.3-0.1-0.6-0.2-0.9-0.2s-0.6-0.1-0.8-0.2s-0.5-0.1-0.9,0c-0.1,0-0.2,0.1-0.4,0.3
		c-0.2,0.3-0.3,0.5-0.4,0.8c-0.1,0.3-0.4,0.5-0.7,0.8c-0.1,0.1-0.2,0.2-0.3,0.1s-0.2-0.1-0.3,0c0-0.1-0.1-0.2-0.2-0.3
		s-0.1-0.1,0-0.3c0.1-0.1,0.1-0.2,0.1-0.5l-0.1-1.3c0-0.4-0.2-0.7-0.5-0.7c-0.1-0.1-0.3-0.1-0.4-0.2c-0.2-0.1-0.3-0.1-0.5-0.1
		c-0.1-0.1-0.3-0.1-0.4-0.2c-0.2-0.1-0.3-0.1-0.5-0.3c-0.5-0.2-0.6-0.5-0.1-0.9c0.1,0,0.1,0,0.1-0.1c0.3-0.1,0.6-0.3,0.8-0.4
		s0.5-0.3,0.8-0.4s0.5-0.4,0.4-0.9v-0.7c0-0.2,0-0.4-0.2-0.6c-0.1-0.1-0.1-0.1-0.1-0.2v-0.3c0.1-0.1,0.1-0.2,0.1-0.3s0-0.2,0.1-0.3
		c0.3-0.1,0.6-0.1,0.8,0.1l0.5,0.5c0.6,0.7,1.1,1,1.6,1.1c0.1,0.1,0.2,0.1,0.3,0 M61.9,1398.9h0.3c0.2-0.1,0.5-0.2,0.7-0.1
		s0.4,0,0.7,0c0.1,0.3,0.2,0.6,0,0.8c-0.1,0.2-0.3,0.5-0.4,0.7c-0.1,0.1-0.2,0.3-0.2,0.5s-0.1,0.3-0.2,0.5c-0.2,0.3-0.2,0.6,0,0.8
		c0.1,0.1,0.2,0.3,0.3,0.5s0.2,0.3,0.3,0.5c0.1,0.1,0.2,0.2,0.2,0.4c0,0.1,0.1,0.2,0.2,0.4c0.1,0.1,0.2,0.3,0.2,0.6
		c0,0.1-0.1,0.3-0.3,0.4s-0.3,0.1-0.5,0c-0.3-0.1-0.6-0.2-0.9-0.2s-0.6-0.1-0.8-0.2s-0.5-0.1-0.9,0c-0.1,0-0.2,0.1-0.4,0.3
		c-0.2,0.3-0.3,0.5-0.4,0.8c-0.1,0.3-0.4,0.5-0.7,0.8c-0.1,0.1-0.2,0.2-0.3,0.1s-0.2-0.1-0.3,0c0-0.1-0.1-0.2-0.2-0.3
		s-0.1-0.1,0-0.3c0.1-0.1,0.1-0.2,0.1-0.5l-0.1-1.3c0-0.4-0.2-0.7-0.5-0.7c-0.1-0.1-0.3-0.1-0.4-0.2c-0.2-0.1-0.3-0.1-0.5-0.1
		c-0.1-0.1-0.3-0.1-0.4-0.2c-0.2-0.1-0.3-0.1-0.5-0.3c-0.5-0.2-0.6-0.5-0.1-0.9c0.1,0,0.1,0,0.1-0.1c0.3-0.1,0.6-0.3,0.8-0.4
		s0.5-0.3,0.8-0.4s0.5-0.4,0.4-0.9v-0.7c0-0.2,0-0.4-0.2-0.6c-0.1-0.1-0.1-0.1-0.1-0.2v-0.3c0.1-0.1,0.1-0.2,0.1-0.3s0-0.2,0.1-0.3
		c0.3-0.1,0.6-0.1,0.8,0.1l0.5,0.5c0.6,0.7,1.1,1,1.6,1.1c0.1,0.1,0.2,0.1,0.3,0 M389.2,1572.6h0.2c0.2-0.1,0.3-0.1,0.4-0.1h0.4
		c0.1,0.2,0.1,0.4,0,0.5s-0.2,0.3-0.3,0.5c-0.1,0.1-0.1,0.2-0.1,0.3s-0.1,0.2-0.1,0.3c-0.2,0.2-0.1,0.4,0,0.6
		c0.1,0.1,0.2,0.2,0.2,0.3s0.1,0.2,0.2,0.3s0.1,0.2,0.1,0.2c0,0.1,0,0.2,0.1,0.2c0.1,0.1,0.1,0.2,0.1,0.4c0,0.1-0.1,0.2-0.2,0.3
		c-0.1,0.1-0.2,0.1-0.3,0c-0.2-0.1-0.4-0.1-0.6-0.1s-0.4-0.1-0.5-0.1c-0.1-0.1-0.3-0.1-0.6,0c-0.1,0-0.2,0.1-0.2,0.2
		c-0.1,0.2-0.2,0.3-0.3,0.5c-0.1,0.2-0.2,0.3-0.5,0.5c-0.1,0.1-0.1,0.1-0.2,0c0-0.1-0.1-0.1-0.2,0c0-0.1,0-0.1-0.1-0.2
		c-0.1,0-0.1-0.1,0-0.2c0,0,0.1-0.1,0-0.3v-0.9c0-0.3-0.1-0.4-0.3-0.5c-0.1,0-0.2-0.1-0.3-0.1c-0.1-0.1-0.2-0.1-0.3-0.1
		s-0.2-0.1-0.3-0.1s-0.2-0.1-0.3-0.2c-0.3-0.1-0.4-0.3-0.1-0.6c0,0,0.1,0,0.1-0.1c0.2-0.1,0.4-0.2,0.5-0.3c0.2-0.1,0.3-0.2,0.5-0.3
		c0.2-0.1,0.3-0.3,0.3-0.6v-0.4c0-0.1,0-0.3-0.1-0.4c0,0-0.1-0.1,0-0.2v-0.2c0-0.1,0.1-0.1,0.1-0.2c0,0,0-0.1,0.1-0.2
		c0.2-0.1,0.4-0.1,0.5,0s0.3,0.2,0.4,0.4c0.4,0.4,0.7,0.7,1.1,0.8h0.2 M195,1418.6h0.3c0.2-0.1,0.5-0.2,0.7-0.1s0.4,0,0.7,0
		c0.1,0.3,0.2,0.6,0,0.8c-0.1,0.2-0.3,0.5-0.4,0.7c-0.1,0.1-0.2,0.3-0.2,0.5s-0.1,0.3-0.2,0.5c-0.2,0.3-0.2,0.6,0,0.8
		c0.1,0.1,0.2,0.3,0.3,0.5s0.2,0.3,0.3,0.5c0.1,0.1,0.2,0.2,0.2,0.4c0,0.1,0.1,0.2,0.2,0.4c0.1,0.1,0.2,0.3,0.2,0.6
		c0,0.1-0.1,0.3-0.3,0.4s-0.3,0.1-0.5,0c-0.3-0.1-0.6-0.2-0.9-0.2s-0.6-0.1-0.8-0.2s-0.5-0.1-0.9,0c-0.1,0-0.2,0.1-0.4,0.3
		c-0.2,0.3-0.3,0.5-0.4,0.8c-0.1,0.3-0.4,0.5-0.7,0.8c-0.1,0.1-0.2,0.2-0.3,0.1s-0.2-0.1-0.3,0c0-0.1-0.1-0.2-0.2-0.3
		s-0.1-0.1,0-0.3c0.1-0.1,0.1-0.2,0.1-0.5l-0.1-1.3c0-0.4-0.2-0.7-0.5-0.7c-0.1-0.1-0.3-0.1-0.4-0.2c-0.2-0.1-0.3-0.1-0.5-0.1
		c-0.1-0.1-0.3-0.1-0.4-0.2c-0.2-0.1-0.3-0.1-0.5-0.3c-0.5-0.2-0.6-0.5-0.1-0.9c0.1,0,0.1,0,0.1-0.1c0.3-0.1,0.6-0.3,0.8-0.4
		s0.5-0.3,0.8-0.4s0.5-0.4,0.4-0.9v-0.7c0-0.2,0-0.4-0.2-0.6c-0.1-0.1-0.1-0.1-0.1-0.2v-0.3c0.1-0.1,0.1-0.2,0.1-0.3s0-0.2,0.1-0.3
		c0.3-0.1,0.6-0.1,0.8,0.1l0.5,0.5c0.6,0.7,1.1,1,1.6,1.1c0.1,0.1,0.2,0.1,0.3,0"/>
</g>
<path class="st3" d="M222.9,162.6h0.3c0.2-0.1,0.5-0.2,0.7-0.1s0.4,0,0.7,0c0.1,0.3,0.2,0.6,0,0.8c-0.1,0.2-0.3,0.5-0.4,0.7
	c-0.1,0.1-0.2,0.3-0.2,0.5s-0.1,0.3-0.2,0.5c-0.2,0.3-0.2,0.6,0,0.8c0.1,0.1,0.2,0.3,0.3,0.5s0.2,0.3,0.3,0.5
	c0.1,0.1,0.2,0.2,0.2,0.4c0,0.1,0.1,0.2,0.2,0.4c0.1,0.1,0.2,0.3,0.2,0.6c0,0.1-0.1,0.3-0.3,0.4s-0.3,0.1-0.5,0
	c-0.3-0.1-0.6-0.2-0.9-0.2s-0.6-0.1-0.8-0.2c-0.2-0.1-0.5-0.1-0.9,0c-0.1,0-0.2,0.1-0.4,0.3c-0.2,0.3-0.3,0.5-0.4,0.8
	s-0.4,0.5-0.7,0.8c-0.1,0.1-0.2,0.2-0.3,0.1s-0.2-0.1-0.3,0c0-0.1-0.1-0.2-0.2-0.3s-0.1-0.1,0-0.3c0.1-0.1,0.1-0.2,0.1-0.5l-0.1-1.3
	c0-0.4-0.2-0.7-0.5-0.7c-0.1-0.1-0.3-0.1-0.4-0.2c-0.2-0.1-0.3-0.1-0.5-0.1c-0.1-0.1-0.3-0.1-0.4-0.2c-0.2-0.1-0.3-0.1-0.5-0.3
	c-0.5-0.2-0.6-0.5-0.1-0.9c0.1,0,0.1,0,0.1-0.1c0.3-0.1,0.6-0.3,0.8-0.4s0.5-0.3,0.8-0.4s0.5-0.4,0.4-0.9v-0.7c0-0.2,0-0.4-0.2-0.6
	c-0.1-0.1-0.1-0.1-0.1-0.2v-0.3c0.1-0.1,0.1-0.2,0.1-0.3s0-0.2,0.1-0.3c0.3-0.1,0.6-0.1,0.8,0.1l0.5,0.5c0.6,0.7,1.1,1,1.6,1.1
	c0.1,0.1,0.2,0.1,0.3,0"/>
<path class="st0" d="M563.1,1180.9h0.2c0.2-0.1,0.3-0.1,0.4-0.1h0.4c0.1,0.2,0.1,0.4,0,0.5c-0.1,0.1-0.2,0.3-0.3,0.5
	c-0.1,0.1-0.1,0.2-0.1,0.3s-0.1,0.2-0.1,0.3c-0.2,0.2-0.1,0.4,0,0.6c0.1,0.1,0.2,0.2,0.2,0.3s0.1,0.2,0.2,0.3
	c0.1,0.1,0.1,0.2,0.1,0.2c0,0.1,0,0.2,0.1,0.2c0.1,0.1,0.1,0.2,0.1,0.4c0,0.1-0.1,0.2-0.2,0.3c-0.1,0.1-0.2,0.1-0.3,0
	c-0.2-0.1-0.4-0.1-0.6-0.1s-0.4-0.1-0.5-0.1c-0.1-0.1-0.3-0.1-0.6,0c-0.1,0-0.2,0.1-0.2,0.2c-0.1,0.2-0.2,0.3-0.3,0.5
	c-0.1,0.2-0.2,0.3-0.5,0.5c-0.1,0.1-0.1,0.1-0.2,0c0-0.1-0.1-0.1-0.2,0c0-0.1,0-0.1-0.1-0.2c-0.1,0-0.1-0.1,0-0.2c0,0,0.1-0.1,0-0.3
	v-0.9c0-0.3-0.1-0.4-0.3-0.5c-0.1,0-0.2-0.1-0.3-0.1c-0.1-0.1-0.2-0.1-0.3-0.1s-0.2-0.1-0.3-0.1s-0.2-0.1-0.3-0.2
	c-0.3-0.1-0.4-0.3-0.1-0.6c0,0,0.1,0,0.1-0.1c0.2-0.1,0.4-0.2,0.5-0.3c0.2-0.1,0.3-0.2,0.5-0.3s0.3-0.3,0.3-0.6v-0.4
	c0-0.1,0-0.3-0.1-0.4c0,0-0.1-0.1,0-0.2v-0.2c0-0.1,0.1-0.1,0.1-0.2c0,0,0-0.1,0.1-0.2c0.2-0.1,0.4-0.1,0.5,0
	c0.1,0.1,0.3,0.2,0.4,0.4c0.4,0.4,0.7,0.7,1.1,0.8h0.2"/>
<path class="st0" d="M408,1194.9h0.2c0.2-0.1,0.3-0.1,0.4-0.1h0.4c0.1,0.2,0.1,0.4,0,0.5s-0.2,0.3-0.3,0.5c-0.1,0.1-0.1,0.2-0.1,0.3
	s-0.1,0.2-0.1,0.3c-0.2,0.2-0.1,0.4,0,0.6c0.1,0.1,0.2,0.2,0.2,0.3s0.1,0.2,0.2,0.3s0.1,0.2,0.1,0.2c0,0.1,0,0.2,0.1,0.2
	c0.1,0.1,0.1,0.2,0.1,0.4c0,0.1-0.1,0.2-0.2,0.3s-0.2,0.1-0.3,0c-0.2-0.1-0.4-0.1-0.6-0.1s-0.4-0.1-0.5-0.1c-0.1-0.1-0.3-0.1-0.6,0
	c-0.1,0-0.2,0.1-0.2,0.2c-0.1,0.2-0.2,0.3-0.3,0.5c-0.1,0.2-0.2,0.3-0.5,0.5c-0.1,0.1-0.1,0.1-0.2,0c0-0.1-0.1-0.1-0.2,0
	c0-0.1,0-0.1-0.1-0.2c-0.1,0-0.1-0.1,0-0.2c0,0,0.1-0.1,0-0.3v-0.9c0-0.3-0.1-0.4-0.3-0.5c-0.1,0-0.2-0.1-0.3-0.1
	c-0.1-0.1-0.2-0.1-0.3-0.1s-0.2-0.1-0.3-0.1s-0.2-0.1-0.3-0.2c-0.3-0.1-0.4-0.3-0.1-0.6c0,0,0.1,0,0.1-0.1c0.2-0.1,0.4-0.2,0.5-0.3
	c0.2-0.1,0.3-0.2,0.5-0.3s0.3-0.3,0.3-0.6v-0.4c0-0.1,0-0.3-0.1-0.4c0,0-0.1-0.1,0-0.2v-0.2c0-0.1,0.1-0.1,0.1-0.2
	c0,0,0-0.1,0.1-0.2c0.2-0.1,0.4-0.1,0.5,0s0.3,0.2,0.4,0.4c0.4,0.4,0.7,0.7,1.1,0.8h0.2"/>
</svg>
