<svg xmlns="http://www.w3.org/2000/svg" xml:space="preserve" viewBox="0 0 468.5 448.4"><linearGradient id="a" x1="166.18" x2="166.18" y1="271.14" y2="192.84" gradientUnits="userSpaceOnUse"><stop offset="0" style="stop-color:#fff"/><stop offset=".32" style="stop-color:#fff"/><stop offset=".88" style="stop-color:#8b8b8b"/><stop offset="1" style="stop-color:#525252"/></linearGradient><path d="M176.8 227.2h-13.5l15.2-18c.8-.9 1.3-2 1.3-3 0-2.3-1.2-3.9-3.4-3.9h-19.5c-1.5 0-3.3.9-3.3 3.5s1.8 3.5 3.3 3.5h11.9l-15.5 18.2c-.7.9-1.1 1.9-1.1 3.2 0 1.8 1.2 3.5 3.7 3.5h20.9c1.5 0 3.3-.9 3.3-3.5 0-2.5-1.8-3.5-3.3-3.5" style="fill:url(#a)"/><linearGradient id="b" x1="200.21" x2="200.21" y1="271.14" y2="192.84" gradientUnits="userSpaceOnUse"><stop offset="0" style="stop-color:#fff"/><stop offset=".32" style="stop-color:#fff"/><stop offset=".88" style="stop-color:#8b8b8b"/><stop offset="1" style="stop-color:#525252"/></linearGradient><path d="M200.6 201.6c-9.7 0-15.5 6.9-15.5 17.3 0 7.7 4.3 16.1 15.8 16.1 5 0 12.9-2.5 12.9-7.8 0-1.6-1.4-3.5-3.4-3.5-3.3 0-3.3 4.4-9.5 4.4-4.8 0-7.6-3.4-7.6-8.1h18.6c2.8 0 3.6-.8 3.6-3.8-.1-7.4-5.5-14.6-14.9-14.6m-7.4 12.9c1.1-5 3.9-6.7 7.8-6.7 4.7 0 7.5 2.5 7.5 6.7z" style="fill:url(#b)"/><linearGradient id="c" x1="236.87" x2="236.87" y1="271.14" y2="192.84" gradientUnits="userSpaceOnUse"><stop offset="0" style="stop-color:#fff"/><stop offset=".32" style="stop-color:#fff"/><stop offset=".88" style="stop-color:#8b8b8b"/><stop offset="1" style="stop-color:#525252"/></linearGradient><path d="M240.5 201.6c-4.8 0-7.8 2.3-10.2 5.6h-.1V206c0-2.7-1.1-4.4-3.8-4.4s-3.8 1.8-3.8 4.4v24.5c0 2.4.9 4.4 4.2 4.4s4.2-2.1 4.2-4.4v-14.6c0-4.4 3.4-7 6.4-7 3.6 0 5.3 2.6 5.3 6.1v15.5c0 2.4.9 4.4 4.2 4.4s4.2-2.1 4.2-4.4v-17.3c0-8.9-5.5-11.6-10.6-11.6" style="fill:url(#c)"/><linearGradient id="d" x1="265.02" x2="265.02" y1="271.14" y2="192.84" gradientUnits="userSpaceOnUse"><stop offset="0" style="stop-color:#fff"/><stop offset=".32" style="stop-color:#fff"/><stop offset=".88" style="stop-color:#8b8b8b"/><stop offset="1" style="stop-color:#525252"/></linearGradient><path d="M265 187.8c-2.4 0-4.4 2.1-4.4 4.6 0 2.6 2 4.6 4.4 4.6s4.4-2.1 4.4-4.6-2-4.6-4.4-4.6" style="fill:url(#d)"/><linearGradient id="e" x1="265.02" x2="265.02" y1="271.14" y2="192.84" gradientUnits="userSpaceOnUse"><stop offset="0" style="stop-color:#fff"/><stop offset=".32" style="stop-color:#fff"/><stop offset=".88" style="stop-color:#8b8b8b"/><stop offset="1" style="stop-color:#525252"/></linearGradient><path d="M265 201.6c-3.3 0-4.2 2.1-4.2 4.4v24.5c0 2.4.9 4.4 4.2 4.4s4.2-2.1 4.2-4.4V206c0-2.3-.9-4.4-4.2-4.4" style="fill:url(#e)"/><linearGradient id="f" x1="286.39" x2="286.39" y1="271.14" y2="192.84" gradientUnits="userSpaceOnUse"><stop offset="0" style="stop-color:#fff"/><stop offset=".32" style="stop-color:#fff"/><stop offset=".88" style="stop-color:#8b8b8b"/><stop offset="1" style="stop-color:#525252"/></linearGradient><path d="M293.2 228H292c-1.5 0-2.2-.7-2.2-2.1v-17.7h2.5c2.5 0 3.8-.8 3.8-2.9s-1.3-2.9-3.8-2.9h-2.5V197c0-2.9-1.7-4.4-4.2-4.4s-4.2 1.5-4.2 4.4v5.4H280c-2.4 0-3.3 1-3.3 2.9s1 2.9 3.3 2.9h1.4V227c0 5.2 2.5 7.9 8.6 7.9 4 0 6.1-1.4 6.1-3.9 0-1.9-1.1-3-2.9-3" style="fill:url(#f)"/><linearGradient id="g" x1="185.41" x2="185.41" y1="271.14" y2="192.84" gradientUnits="userSpaceOnUse"><stop offset="0" style="stop-color:#fff"/><stop offset=".32" style="stop-color:#fff"/><stop offset=".88" style="stop-color:#8b8b8b"/><stop offset="1" style="stop-color:#525252"/></linearGradient><path d="M188.3 248c.9.4 1.5 1 2 1.7.4.6.7 1.4.9 2.3.1.6.2 1.5.2 2.8H182c0 1.3.3 2.4.9 3.1q.9 1.2 2.7 1.2c1.1 0 2-.4 2.7-1.1.4-.4.7-.9.8-1.5h2.1c-.1.5-.2 1-.6 1.6s-.7 1.1-1.1 1.4c-.7.6-1.5 1.1-2.4 1.3-.5.1-1.1.2-1.8.2-1.6 0-3-.6-4.1-1.7a7 7 0 0 1-1.7-4.9c0-2.1.6-3.7 1.7-5s2.6-1.9 4.4-1.9c.9-.1 1.8.1 2.7.5m.8 5.1c-.1-.9-.3-1.7-.6-2.2-.6-1-1.6-1.6-3-1.6-1 0-1.8.4-2.5 1.1s-1 1.6-1.1 2.7z" style="fill:url(#g)"/><linearGradient id="h" x1="200.42" x2="200.42" y1="271.14" y2="192.84" gradientUnits="userSpaceOnUse"><stop offset="0" style="stop-color:#fff"/><stop offset=".32" style="stop-color:#fff"/><stop offset=".88" style="stop-color:#8b8b8b"/><stop offset="1" style="stop-color:#525252"/></linearGradient><path d="M197.2 256.5c.1.7.2 1.3.5 1.7.5.7 1.5 1 2.8 1 .8 0 1.5-.2 2.1-.5s.9-.9.9-1.6c0-.6-.2-1-.7-1.3q-.45-.3-1.8-.6l-1.7-.4q-1.65-.45-2.4-.9c-.9-.6-1.4-1.4-1.4-2.4 0-1.2.4-2.2 1.3-3s2.1-1.1 3.5-1.1c1.9 0 3.3.6 4.2 1.7.5.7.8 1.5.8 2.3h-2c0-.5-.2-.9-.5-1.3-.5-.6-1.4-.9-2.6-.9-.8 0-1.4.2-1.9.5q-.6.45-.6 1.2c0 .6.3 1 .8 1.3.3.2.8.4 1.4.5l1.4.3c1.6.4 2.6.7 3.1 1.1.8.6 1.3 1.4 1.3 2.6 0 1.1-.4 2.1-1.3 3-.9.8-2.2 1.2-4 1.2-1.9 0-3.3-.4-4.1-1.3s-1.2-1.9-1.3-3.2h2.2z" style="fill:url(#h)"/><linearGradient id="i" x1="211.85" x2="211.85" y1="271.14" y2="192.84" gradientUnits="userSpaceOnUse"><stop offset="0" style="stop-color:#fff"/><stop offset=".32" style="stop-color:#fff"/><stop offset=".88" style="stop-color:#8b8b8b"/><stop offset="1" style="stop-color:#525252"/></linearGradient><path d="M210.6 244.1h2.2v3.6h2.1v1.8h-2.1v8.4c0 .4.2.7.5.9.2.1.4.1.8.1h.7v1.7c-.2.1-.5.1-.8.2h-.9c-1 0-1.7-.3-2.1-.8s-.5-1.2-.5-2v-8.5h-1.7v-1.8h1.7v-3.6z" style="fill:url(#i)"/><linearGradient id="j" x1="224.1" x2="224.1" y1="271.14" y2="192.84" gradientUnits="userSpaceOnUse"><stop offset="0" style="stop-color:#fff"/><stop offset=".32" style="stop-color:#fff"/><stop offset=".88" style="stop-color:#8b8b8b"/><stop offset="1" style="stop-color:#525252"/></linearGradient><path d="M221.1 247.7v8.5c0 .7.1 1.2.3 1.6q.6 1.2 2.1 1.2c1.5 0 2.5-.7 3.1-2 .3-.7.4-1.7.4-3v-6.3h2.2v12.9h-2v-1.9a4.36 4.36 0 0 1-4 2.2c-1.8 0-3.1-.6-3.7-1.8-.4-.7-.5-1.5-.5-2.6v-8.7h2.1z" style="fill:url(#j)"/><linearGradient id="k" x1="239.4" x2="239.4" y1="271.14" y2="192.84" gradientUnits="userSpaceOnUse"><stop offset="0" style="stop-color:#fff"/><stop offset=".32" style="stop-color:#fff"/><stop offset=".88" style="stop-color:#8b8b8b"/><stop offset="1" style="stop-color:#525252"/></linearGradient><path d="M241.7 248.1c.4.2.8.7 1.3 1.3v-6.5h2.1v17.7h-1.9v-1.8c-.5.8-1.1 1.4-1.8 1.7-.7.4-1.5.5-2.4.5-1.4 0-2.7-.6-3.7-1.8a7.3 7.3 0 0 1-1.6-4.8c0-1.9.5-3.5 1.4-4.9s2.3-2.1 4.1-2.1c1 0 1.8.2 2.5.7m-4.8 9.6c.6.9 1.5 1.4 2.8 1.4a3 3 0 0 0 2.5-1.3c.6-.9 1-2.1 1-3.7s-.3-2.8-1-3.6-1.5-1.2-2.5-1.2c-1.1 0-2 .4-2.6 1.2-.7.8-1 2.1-1 3.7-.1 1.4.2 2.6.8 3.5" style="fill:url(#k)"/><linearGradient id="l" x1="251.36" x2="251.36" y1="271.14" y2="192.84" gradientUnits="userSpaceOnUse"><stop offset="0" style="stop-color:#fff"/><stop offset=".32" style="stop-color:#fff"/><stop offset=".88" style="stop-color:#8b8b8b"/><stop offset="1" style="stop-color:#525252"/></linearGradient><path d="M250.3 242.9h2.2v2.4h-2.2zm0 4.8h2.2v12.8h-2.2z" style="fill:url(#l)"/><linearGradient id="m" x1="262.81" x2="262.81" y1="271.14" y2="192.84" gradientUnits="userSpaceOnUse"><stop offset="0" style="stop-color:#fff"/><stop offset=".32" style="stop-color:#fff"/><stop offset=".88" style="stop-color:#8b8b8b"/><stop offset="1" style="stop-color:#525252"/></linearGradient><path d="M267.1 248.9c1.1 1.1 1.7 2.7 1.7 4.9q0 3.15-1.5 5.1c-1 1.4-2.6 2-4.7 2q-2.7 0-4.2-1.8c-1.5-1.8-1.6-2.8-1.6-4.8 0-2.2.5-3.9 1.6-5.2s2.6-1.9 4.4-1.9c1.7.1 3.1.6 4.3 1.7m-1.4 8.6c.5-1.1.8-2.3.8-3.6 0-1.2-.2-2.2-.6-2.9-.6-1.2-1.7-1.8-3.1-1.8-1.3 0-2.3.5-2.9 1.5a7 7 0 0 0-.9 3.7c0 1.4.3 2.5.9 3.4s1.6 1.4 2.9 1.4c1.4-.1 2.4-.6 2.9-1.7" style="fill:url(#m)"/></svg>